<svg width="380" height="277" viewBox="0 0 380 277" fill="none" xmlns="http://www.w3.org/2000/svg">
<mask id="mask0_124_479" style="mask-type:alpha" maskUnits="userSpaceOnUse" x="0" y="0" width="380" height="277">
<rect width="380" height="277" rx="16" fill="url(#paint0_linear_124_479)"/>
</mask>
<g mask="url(#mask0_124_479)">
<mask id="mask1_124_479" style="mask-type:alpha" maskUnits="userSpaceOnUse" x="0" y="0" width="379" height="277">
<rect width="379" height="277" fill="url(#paint1_linear_124_479)" fill-opacity="0.9"/>
</mask>
<g mask="url(#mask1_124_479)">
<rect x="14" y="16" width="379" height="277" rx="10" fill="url(#paint2_linear_124_479)" fill-opacity="0.9"/>
<rect x="14.5" y="16.5" width="378" height="276" rx="9.5" stroke="url(#paint3_linear_124_479)" stroke-opacity="0.4"/>
<rect x="30" y="32" width="355" height="135" rx="4" fill="#0F1425" fill-opacity="0.2"/>
<rect x="30.5" y="32.5" width="354" height="134" rx="3.5" stroke="#2C3E6B" stroke-opacity="0.8"/>
<g filter="url(#filter0_b_124_479)">
<rect x="46" y="85" width="347" height="66" rx="4" fill="#3E4D83" fill-opacity="0.3"/>
</g>
<rect x="30" y="183" width="355" height="140" rx="4" fill="#0F1425" fill-opacity="0.2"/>
<rect x="30.5" y="183.5" width="354" height="139" rx="3.5" stroke="#2C3E6B" stroke-opacity="0.8"/>
<path d="M79.1484 55.9567C79.0916 55.4524 78.8572 55.0618 78.4453 54.7848C78.0334 54.5043 77.5149 54.364 76.8899 54.364C76.4425 54.364 76.0554 54.435 75.7287 54.5771C75.402 54.7156 75.1481 54.9073 74.967 55.1523C74.7894 55.3938 74.7006 55.669 74.7006 55.978C74.7006 56.2372 74.761 56.4609 74.8817 56.6491C75.006 56.8374 75.1676 56.9954 75.3665 57.1232C75.5689 57.2475 75.7855 57.3523 76.0163 57.4375C76.2472 57.5192 76.4691 57.5866 76.6822 57.6399L77.7475 57.9169C78.0955 58.0021 78.4524 58.1175 78.8182 58.2631C79.1839 58.4087 79.5231 58.6005 79.8356 58.8384C80.1481 59.0763 80.4002 59.3711 80.592 59.7227C80.7873 60.0742 80.8849 60.495 80.8849 60.9851C80.8849 61.603 80.7251 62.1516 80.4055 62.631C80.0895 63.1104 79.6296 63.4886 79.0259 63.7656C78.4258 64.0426 77.6996 64.1811 76.8473 64.1811C76.0305 64.1811 75.3239 64.0515 74.7273 63.7923C74.1307 63.533 73.6637 63.1655 73.3263 62.6896C72.989 62.2102 72.8026 61.642 72.767 60.9851H74.4183C74.4503 61.3793 74.5781 61.7077 74.8018 61.9705C75.0291 62.2298 75.3185 62.4233 75.6701 62.5511C76.0252 62.6754 76.4141 62.7376 76.8366 62.7376C77.3018 62.7376 77.7156 62.6648 78.0778 62.5192C78.4435 62.37 78.7312 62.1641 78.9407 61.9013C79.1502 61.6349 79.255 61.3242 79.255 60.9691C79.255 60.646 79.1626 60.3814 78.978 60.1754C78.7969 59.9695 78.5501 59.799 78.2376 59.6641C77.9286 59.5291 77.5788 59.4102 77.1882 59.3072L75.8991 58.9556C75.0256 58.7177 74.3331 58.3679 73.8217 57.9062C73.3139 57.4446 73.06 56.8338 73.06 56.0739C73.06 55.4453 73.2305 54.8967 73.5714 54.4279C73.9123 53.9592 74.3739 53.5952 74.9563 53.3359C75.5387 53.0732 76.1957 52.9418 76.9272 52.9418C77.6658 52.9418 78.3175 53.0714 78.8821 53.3306C79.4503 53.5898 79.8977 53.9467 80.2244 54.4013C80.5511 54.8523 80.7216 55.3707 80.7358 55.9567H79.1484ZM85.105 64.1811C84.5866 64.1811 84.1178 64.0852 83.6988 63.8935C83.2797 63.6982 82.9477 63.4158 82.7027 63.0465C82.4612 62.6772 82.3405 62.2244 82.3405 61.6882C82.3405 61.2266 82.4292 60.8466 82.6068 60.5483C82.7844 60.25 83.0241 60.0138 83.3259 59.8398C83.6278 59.6658 83.9651 59.5344 84.338 59.4457C84.7108 59.3569 85.0908 59.2894 85.4779 59.2433C85.968 59.1864 86.3657 59.1403 86.6711 59.1048C86.9765 59.0657 87.1984 59.0036 87.3369 58.9183C87.4754 58.8331 87.5447 58.6946 87.5447 58.5028V58.4656C87.5447 58.0004 87.4133 57.6399 87.1505 57.3842C86.8912 57.1286 86.5042 57.0007 85.9893 57.0007C85.453 57.0007 85.0305 57.1197 84.7215 57.3576C84.4161 57.592 84.2048 57.853 84.0876 58.1406L82.5908 57.7997C82.7684 57.3026 83.0276 56.9013 83.3685 56.5959C83.713 56.2869 84.1089 56.0632 84.5564 55.9247C85.0038 55.7827 85.4743 55.7116 85.968 55.7116C86.2947 55.7116 86.6409 55.7507 87.0067 55.8288C87.376 55.9034 87.7204 56.0419 88.04 56.2443C88.3632 56.4467 88.6278 56.7362 88.8337 57.1126C89.0397 57.4854 89.1427 57.9702 89.1427 58.5668V64H87.5873V62.8814H87.5233C87.4204 63.0874 87.2659 63.2898 87.0599 63.4886C86.854 63.6875 86.5894 63.8526 86.2662 63.984C85.9431 64.1154 85.556 64.1811 85.105 64.1811ZM85.4513 62.9027C85.8916 62.9027 86.268 62.8157 86.5805 62.6417C86.8966 62.4677 87.1363 62.2404 87.2996 61.9599C87.4665 61.6758 87.55 61.3722 87.55 61.049V59.9943C87.4932 60.0511 87.3831 60.1044 87.2197 60.1541C87.0599 60.2003 86.877 60.2411 86.6711 60.2766C86.4651 60.3086 86.2645 60.3388 86.0692 60.3672C85.8738 60.392 85.7105 60.4134 85.5791 60.4311C85.2702 60.4702 84.9878 60.5359 84.7322 60.6282C84.48 60.7205 84.2776 60.8537 84.1249 61.0277C83.9758 61.1982 83.9012 61.4254 83.9012 61.7095C83.9012 62.1037 84.0468 62.402 84.338 62.6044C84.6292 62.8033 85.0003 62.9027 85.4513 62.9027ZM97.9703 55.8182L95.0034 64H93.2988L90.3265 55.8182H92.0364L94.1085 62.1143H94.1937L96.2605 55.8182H97.9703ZM102.715 64.1651C101.909 64.1651 101.215 63.9929 100.632 63.6484C100.054 63.3004 99.6061 62.8121 99.29 62.1836C98.9775 61.5515 98.8213 60.8111 98.8213 59.9624C98.8213 59.1243 98.9775 58.3857 99.29 57.7464C99.6061 57.1072 100.046 56.6083 100.611 56.2496C101.179 55.891 101.843 55.7116 102.603 55.7116C103.065 55.7116 103.512 55.788 103.946 55.9407C104.379 56.0934 104.768 56.3331 105.112 56.6598C105.457 56.9865 105.728 57.4109 105.927 57.9329C106.126 58.4513 106.225 59.0817 106.225 59.8239V60.3885H99.7215V59.1953H104.665C104.665 58.7763 104.579 58.4052 104.409 58.082C104.239 57.7553 103.999 57.4979 103.69 57.3097C103.384 57.1214 103.026 57.0273 102.614 57.0273C102.166 57.0273 101.776 57.1374 101.442 57.3576C101.112 57.5742 100.856 57.8583 100.675 58.2099C100.497 58.5579 100.409 58.9361 100.409 59.3445V60.2766C100.409 60.8235 100.505 61.2887 100.696 61.6722C100.892 62.0558 101.163 62.3487 101.511 62.5511C101.859 62.75 102.266 62.8494 102.731 62.8494C103.033 62.8494 103.308 62.8068 103.557 62.7216C103.805 62.6328 104.02 62.5014 104.201 62.3274C104.382 62.1534 104.521 61.9386 104.617 61.6829L106.124 61.9545C106.003 62.3984 105.787 62.7873 105.474 63.1211C105.165 63.4513 104.777 63.7088 104.308 63.8935C103.843 64.0746 103.312 64.1651 102.715 64.1651ZM114.343 64.1811C113.825 64.1811 113.356 64.0852 112.937 63.8935C112.518 63.6982 112.186 63.4158 111.941 63.0465C111.699 62.6772 111.579 62.2244 111.579 61.6882C111.579 61.2266 111.668 60.8466 111.845 60.5483C112.023 60.25 112.262 60.0138 112.564 59.8398C112.866 59.6658 113.203 59.5344 113.576 59.4457C113.949 59.3569 114.329 59.2894 114.716 59.2433C115.206 59.1864 115.604 59.1403 115.909 59.1048C116.215 59.0657 116.437 59.0036 116.575 58.9183C116.714 58.8331 116.783 58.6946 116.783 58.5028V58.4656C116.783 58.0004 116.652 57.6399 116.389 57.3842C116.13 57.1286 115.742 57.0007 115.228 57.0007C114.691 57.0007 114.269 57.1197 113.96 57.3576C113.654 57.592 113.443 57.853 113.326 58.1406L111.829 57.7997C112.007 57.3026 112.266 56.9013 112.607 56.5959C112.951 56.2869 113.347 56.0632 113.795 55.9247C114.242 55.7827 114.713 55.7116 115.206 55.7116C115.533 55.7116 115.879 55.7507 116.245 55.8288C116.614 55.9034 116.959 56.0419 117.278 56.2443C117.601 56.4467 117.866 56.7362 118.072 57.1126C118.278 57.4854 118.381 57.9702 118.381 58.5668V64H116.826V62.8814H116.762C116.659 63.0874 116.504 63.2898 116.298 63.4886C116.092 63.6875 115.828 63.8526 115.505 63.984C115.181 64.1154 114.794 64.1811 114.343 64.1811ZM114.69 62.9027C115.13 62.9027 115.506 62.8157 115.819 62.6417C116.135 62.4677 116.375 62.2404 116.538 61.9599C116.705 61.6758 116.788 61.3722 116.788 61.049V59.9943C116.731 60.0511 116.621 60.1044 116.458 60.1541C116.298 60.2003 116.115 60.2411 115.909 60.2766C115.703 60.3086 115.503 60.3388 115.307 60.3672C115.112 60.392 114.949 60.4134 114.817 60.4311C114.508 60.4702 114.226 60.5359 113.97 60.6282C113.718 60.7205 113.516 60.8537 113.363 61.0277C113.214 61.1982 113.139 61.4254 113.139 61.7095C113.139 62.1037 113.285 62.402 113.576 62.6044C113.867 62.8033 114.239 62.9027 114.69 62.9027ZM126.065 59.142V64H124.472V55.8182H126.001V57.1499H126.102C126.29 56.7166 126.585 56.3686 126.986 56.1058C127.391 55.843 127.901 55.7116 128.515 55.7116C129.073 55.7116 129.561 55.8288 129.98 56.0632C130.399 56.294 130.724 56.6385 130.955 57.0966C131.185 57.5547 131.301 58.1211 131.301 58.7958V64H129.708V58.9876C129.708 58.3945 129.554 57.9311 129.245 57.5973C128.936 57.2599 128.511 57.0913 127.972 57.0913C127.602 57.0913 127.274 57.1712 126.986 57.331C126.702 57.4908 126.477 57.7251 126.31 58.0341C126.146 58.3395 126.065 58.7088 126.065 59.142ZM136.963 64.1651C136.157 64.1651 135.463 63.9929 134.88 63.6484C134.302 63.3004 133.854 62.8121 133.538 62.1836C133.226 61.5515 133.069 60.8111 133.069 59.9624C133.069 59.1243 133.226 58.3857 133.538 57.7464C133.854 57.1072 134.294 56.6083 134.859 56.2496C135.427 55.891 136.091 55.7116 136.851 55.7116C137.313 55.7116 137.76 55.788 138.194 55.9407C138.627 56.0934 139.016 56.3331 139.36 56.6598C139.705 56.9865 139.976 57.4109 140.175 57.9329C140.374 58.4513 140.473 59.0817 140.473 59.8239V60.3885H133.97V59.1953H138.913C138.913 58.7763 138.828 58.4052 138.657 58.082C138.487 57.7553 138.247 57.4979 137.938 57.3097C137.633 57.1214 137.274 57.0273 136.862 57.0273C136.415 57.0273 136.024 57.1374 135.69 57.3576C135.36 57.5742 135.104 57.8583 134.923 58.2099C134.745 58.5579 134.657 58.9361 134.657 59.3445V60.2766C134.657 60.8235 134.753 61.2887 134.944 61.6722C135.14 62.0558 135.411 62.3487 135.759 62.5511C136.107 62.75 136.514 62.8494 136.979 62.8494C137.281 62.8494 137.556 62.8068 137.805 62.7216C138.053 62.6328 138.268 62.5014 138.449 62.3274C138.63 62.1534 138.769 61.9386 138.865 61.6829L140.372 61.9545C140.252 62.3984 140.035 62.7873 139.722 63.1211C139.413 63.4513 139.025 63.7088 138.556 63.8935C138.091 64.0746 137.56 64.1651 136.963 64.1651ZM144 64L141.592 55.8182H143.238L144.841 61.8267H144.921L146.53 55.8182H148.176L149.774 61.8001H149.854L151.446 55.8182H153.092L150.69 64H149.065L147.403 58.0927H147.281L145.619 64H144ZM165.573 55.8182L162.606 64H160.901L157.929 55.8182H159.639L161.711 62.1143H161.796L163.863 55.8182H165.573ZM170.318 64.1651C169.512 64.1651 168.817 63.9929 168.235 63.6484C167.656 63.3004 167.209 62.8121 166.893 62.1836C166.58 61.5515 166.424 60.8111 166.424 59.9624C166.424 59.1243 166.58 58.3857 166.893 57.7464C167.209 57.1072 167.649 56.6083 168.214 56.2496C168.782 55.891 169.446 55.7116 170.206 55.7116C170.667 55.7116 171.115 55.788 171.548 55.9407C171.981 56.0934 172.37 56.3331 172.715 56.6598C173.059 56.9865 173.331 57.4109 173.53 57.9329C173.729 58.4513 173.828 59.0817 173.828 59.8239V60.3885H167.324V59.1953H172.267C172.267 58.7763 172.182 58.4052 172.012 58.082C171.841 57.7553 171.601 57.4979 171.292 57.3097C170.987 57.1214 170.628 57.0273 170.216 57.0273C169.769 57.0273 169.378 57.1374 169.045 57.3576C168.714 57.5742 168.459 57.8583 168.278 58.2099C168.1 58.5579 168.011 58.9361 168.011 59.3445V60.2766C168.011 60.8235 168.107 61.2887 168.299 61.6722C168.494 62.0558 168.766 62.3487 169.114 62.5511C169.462 62.75 169.868 62.8494 170.334 62.8494C170.635 62.8494 170.911 62.8068 171.159 62.7216C171.408 62.6328 171.623 62.5014 171.804 62.3274C171.985 62.1534 172.123 61.9386 172.219 61.6829L173.727 61.9545C173.606 62.3984 173.389 62.7873 173.077 63.1211C172.768 63.4513 172.379 63.7088 171.91 63.8935C171.445 64.0746 170.914 64.1651 170.318 64.1651ZM175.595 64V55.8182H177.134V57.1179H177.22C177.369 56.6776 177.632 56.3313 178.008 56.0792C178.388 55.8235 178.818 55.6957 179.297 55.6957C179.397 55.6957 179.514 55.6992 179.649 55.7063C179.787 55.7134 179.896 55.7223 179.974 55.733V57.2564C179.91 57.2386 179.796 57.2191 179.633 57.1978C179.469 57.1729 179.306 57.1605 179.143 57.1605C178.766 57.1605 178.431 57.2404 178.136 57.4002C177.845 57.5565 177.614 57.7749 177.443 58.0554C177.273 58.3324 177.188 58.6484 177.188 59.0036V64H175.595ZM187.483 57.8157L186.039 58.0714C185.979 57.8867 185.883 57.7109 185.752 57.544C185.624 57.3771 185.45 57.2404 185.23 57.1339C185.01 57.0273 184.734 56.9741 184.404 56.9741C183.953 56.9741 183.577 57.0753 183.275 57.2777C182.973 57.4766 182.822 57.734 182.822 58.0501C182.822 58.3235 182.923 58.5437 183.126 58.7106C183.328 58.8775 183.655 59.0142 184.106 59.1207L185.406 59.419C186.158 59.593 186.719 59.8612 187.089 60.2234C187.458 60.5856 187.643 61.0561 187.643 61.6349C187.643 62.125 187.501 62.5618 187.217 62.9453C186.936 63.3253 186.544 63.6236 186.039 63.8402C185.539 64.0568 184.958 64.1651 184.298 64.1651C183.381 64.1651 182.634 63.9698 182.055 63.5792C181.476 63.185 181.121 62.6257 180.99 61.9013L182.529 61.6669C182.625 62.0682 182.822 62.3718 183.12 62.5778C183.419 62.7802 183.808 62.8814 184.287 62.8814C184.809 62.8814 185.226 62.7731 185.539 62.5565C185.851 62.3363 186.007 62.0682 186.007 61.7521C186.007 61.4964 185.912 61.2816 185.72 61.1076C185.532 60.9336 185.242 60.8022 184.852 60.7134L183.467 60.4098C182.703 60.2358 182.138 59.9588 181.773 59.5788C181.411 59.1989 181.229 58.7177 181.229 58.1353C181.229 57.6523 181.364 57.2298 181.634 56.8675C181.904 56.5053 182.277 56.223 182.753 56.0206C183.229 55.8146 183.774 55.7116 184.388 55.7116C185.272 55.7116 185.968 55.9034 186.476 56.2869C186.984 56.6669 187.32 57.1765 187.483 57.8157ZM189.394 64V55.8182H190.987V64H189.394ZM190.198 54.5558C189.921 54.5558 189.683 54.4634 189.484 54.2788C189.289 54.0906 189.191 53.8668 189.191 53.6076C189.191 53.3448 189.289 53.1211 189.484 52.9364C189.683 52.7482 189.921 52.6541 190.198 52.6541C190.475 52.6541 190.711 52.7482 190.907 52.9364C191.106 53.1211 191.205 53.3448 191.205 53.6076C191.205 53.8668 191.106 54.0906 190.907 54.2788C190.711 54.4634 190.475 54.5558 190.198 54.5558ZM196.576 64.1651C195.809 64.1651 195.139 63.9893 194.567 63.6378C193.996 63.2862 193.552 62.7944 193.236 62.1623C192.92 61.5302 192.762 60.7915 192.762 59.9464C192.762 59.0977 192.92 58.3555 193.236 57.7198C193.552 57.0842 193.996 56.5906 194.567 56.239C195.139 55.8874 195.809 55.7116 196.576 55.7116C197.343 55.7116 198.012 55.8874 198.584 56.239C199.156 56.5906 199.599 57.0842 199.915 57.7198C200.232 58.3555 200.39 59.0977 200.39 59.9464C200.39 60.7915 200.232 61.5302 199.915 62.1623C199.599 62.7944 199.156 63.2862 198.584 63.6378C198.012 63.9893 197.343 64.1651 196.576 64.1651ZM196.581 62.8281C197.078 62.8281 197.49 62.6967 197.817 62.4339C198.143 62.1712 198.385 61.8214 198.541 61.3846C198.701 60.9478 198.781 60.4666 198.781 59.9411C198.781 59.419 198.701 58.9396 198.541 58.5028C198.385 58.0625 198.143 57.7092 197.817 57.4428C197.49 57.1765 197.078 57.0433 196.581 57.0433C196.08 57.0433 195.665 57.1765 195.335 57.4428C195.008 57.7092 194.765 58.0625 194.605 58.5028C194.449 58.9396 194.37 59.419 194.37 59.9411C194.37 60.4666 194.449 60.9478 194.605 61.3846C194.765 61.8214 195.008 62.1712 195.335 62.4339C195.665 62.6967 196.08 62.8281 196.581 62.8281ZM203.76 59.142V64H202.167V55.8182H203.696V57.1499H203.797C203.986 56.7166 204.28 56.3686 204.682 56.1058C205.086 55.843 205.596 55.7116 206.21 55.7116C206.768 55.7116 207.256 55.8288 207.675 56.0632C208.094 56.294 208.419 56.6385 208.65 57.0966C208.881 57.5547 208.996 58.1211 208.996 58.7958V64H207.403V58.9876C207.403 58.3945 207.249 57.9311 206.94 57.5973C206.631 57.2599 206.207 57.0913 205.667 57.0913C205.298 57.0913 204.969 57.1712 204.682 57.331C204.397 57.4908 204.172 57.7251 204.005 58.0341C203.842 58.3395 203.76 58.7088 203.76 59.142Z" fill="#EFF1F6"/>
<path d="M58.9258 57.321C58.7206 54.9064 56.6063 53 54 53C51.2579 53 49.0345 55.1026 49.0345 57.6957C49.0345 58.0609 49.0886 58.4115 49.1713 58.7527C47.4091 58.8226 46 60.1864 46 61.8696C46 63.5986 47.4819 65 49.3103 65H57.8621C60.1473 65 62 63.248 62 61.087C62 59.2755 60.6924 57.7666 58.9258 57.321ZM58.9258 57.321C58.587 57.2355 58.2295 57.1739 57.862 57.1739C56.6361 57.1739 55.536 57.6779 54.7779 58.4783" stroke="#749FF6" stroke-linecap="round" stroke-linejoin="round"/>
<g filter="url(#filter1_b_124_479)">
<rect x="46" y="246" width="301" height="107" rx="8" fill="#7A84A8" fill-opacity="0.3"/>
</g>
<path d="M78.8011 102.364C78.7415 101.86 78.4995 101.469 78.0753 101.19C77.651 100.912 77.1307 100.773 76.5142 100.773C76.0634 100.773 75.669 100.846 75.331 100.991C74.9962 101.137 74.7344 101.338 74.5455 101.593C74.3598 101.848 74.267 102.138 74.267 102.463C74.267 102.735 74.3317 102.969 74.4609 103.164C74.5935 103.356 74.7625 103.517 74.968 103.646C75.1735 103.772 75.389 103.877 75.6143 103.96C75.8397 104.039 76.0469 104.104 76.2358 104.153L77.2699 104.432C77.535 104.501 77.83 104.598 78.1548 104.72C78.483 104.843 78.7962 105.01 79.0945 105.222C79.3961 105.431 79.6446 105.7 79.8402 106.028C80.0357 106.356 80.1335 106.759 80.1335 107.236C80.1335 107.786 79.9893 108.283 79.701 108.727C79.416 109.171 78.9983 109.524 78.4482 109.786C77.9013 110.048 77.2367 110.179 76.4545 110.179C75.7254 110.179 75.094 110.061 74.5604 109.826C74.0301 109.591 73.6125 109.263 73.3075 108.842C73.0059 108.421 72.8352 107.932 72.7955 107.375H74.0682C74.1013 107.759 74.2306 108.078 74.456 108.33C74.6847 108.578 74.973 108.764 75.321 108.886C75.6723 109.006 76.0502 109.065 76.4545 109.065C76.9252 109.065 77.3478 108.989 77.7223 108.837C78.0968 108.681 78.3935 108.465 78.6122 108.19C78.831 107.912 78.9403 107.587 78.9403 107.216C78.9403 106.878 78.8459 106.603 78.657 106.391C78.468 106.179 78.2195 106.006 77.9112 105.874C77.603 105.741 77.2699 105.625 76.9119 105.526L75.6591 105.168C74.8636 104.939 74.2339 104.612 73.7699 104.188C73.3059 103.764 73.0739 103.209 73.0739 102.523C73.0739 101.953 73.228 101.455 73.5362 101.031C73.8478 100.604 74.2654 100.272 74.7891 100.037C75.3161 99.7983 75.9044 99.679 76.554 99.679C77.2102 99.679 77.7936 99.7966 78.304 100.032C78.8144 100.264 79.2188 100.582 79.517 100.987C79.8187 101.391 79.9777 101.85 79.9943 102.364H78.8011ZM86.6741 106.878V102.364H87.8474V110H86.6741V108.707H86.5946C86.4156 109.095 86.1372 109.425 85.7593 109.697C85.3815 109.965 84.9042 110.099 84.3275 110.099C83.8502 110.099 83.426 109.995 83.0548 109.786C82.6836 109.574 82.3919 109.256 82.1798 108.832C81.9677 108.404 81.8616 107.866 81.8616 107.216V102.364H83.0349V107.136C83.0349 107.693 83.1907 108.137 83.5022 108.469C83.8171 108.8 84.2181 108.966 84.7053 108.966C84.997 108.966 85.2937 108.891 85.5953 108.742C85.9002 108.593 86.1554 108.364 86.3609 108.056C86.5697 107.748 86.6741 107.355 86.6741 106.878ZM92.9586 110.159C92.2427 110.159 91.6262 109.99 91.1092 109.652C90.5922 109.314 90.1944 108.848 89.916 108.255C89.6376 107.662 89.4984 106.984 89.4984 106.222C89.4984 105.446 89.6409 104.762 89.926 104.168C90.2143 103.572 90.6154 103.106 91.1291 102.771C91.6461 102.433 92.2494 102.264 92.9387 102.264C93.4757 102.264 93.9596 102.364 94.3905 102.562C94.8213 102.761 95.1743 103.04 95.4494 103.398C95.7245 103.756 95.8952 104.173 95.9615 104.651H94.7882C94.6987 104.303 94.4998 103.994 94.1916 103.726C93.8867 103.454 93.4757 103.318 92.9586 103.318C92.5012 103.318 92.1002 103.437 91.7555 103.676C91.4141 103.911 91.1473 104.245 90.9551 104.675C90.7662 105.103 90.6717 105.605 90.6717 106.182C90.6717 106.772 90.7645 107.286 90.9501 107.723C91.139 108.161 91.4042 108.5 91.7456 108.742C92.0903 108.984 92.4946 109.105 92.9586 109.105C93.2636 109.105 93.5403 109.052 93.7889 108.946C94.0375 108.84 94.2479 108.688 94.4203 108.489C94.5926 108.29 94.7153 108.051 94.7882 107.773H95.9615C95.8952 108.223 95.7311 108.629 95.4693 108.991C95.2108 109.349 94.8677 109.634 94.4402 109.846C94.0159 110.055 93.5221 110.159 92.9586 110.159ZM100.639 110.159C99.923 110.159 99.3066 109.99 98.7895 109.652C98.2725 109.314 97.8747 108.848 97.5963 108.255C97.3179 107.662 97.1787 106.984 97.1787 106.222C97.1787 105.446 97.3212 104.762 97.6063 104.168C97.8946 103.572 98.2957 103.106 98.8094 102.771C99.3264 102.433 99.9297 102.264 100.619 102.264C101.156 102.264 101.64 102.364 102.071 102.562C102.502 102.761 102.855 103.04 103.13 103.398C103.405 103.756 103.576 104.173 103.642 104.651H102.468C102.379 104.303 102.18 103.994 101.872 103.726C101.567 103.454 101.156 103.318 100.639 103.318C100.182 103.318 99.7805 103.437 99.4358 103.676C99.0944 103.911 98.8276 104.245 98.6354 104.675C98.4465 105.103 98.352 105.605 98.352 106.182C98.352 106.772 98.4448 107.286 98.6304 107.723C98.8193 108.161 99.0845 108.5 99.4259 108.742C99.7706 108.984 100.175 109.105 100.639 109.105C100.944 109.105 101.221 109.052 101.469 108.946C101.718 108.84 101.928 108.688 102.101 108.489C102.273 108.29 102.396 108.051 102.468 107.773H103.642C103.576 108.223 103.411 108.629 103.15 108.991C102.891 109.349 102.548 109.634 102.12 109.846C101.696 110.055 101.202 110.159 100.639 110.159ZM108.419 110.159C107.683 110.159 107.048 109.997 106.515 109.672C105.984 109.344 105.575 108.886 105.287 108.3C105.002 107.71 104.859 107.024 104.859 106.241C104.859 105.459 105.002 104.77 105.287 104.173C105.575 103.573 105.976 103.106 106.49 102.771C107.007 102.433 107.61 102.264 108.299 102.264C108.697 102.264 109.09 102.33 109.478 102.463C109.865 102.596 110.218 102.811 110.537 103.109C110.855 103.404 111.108 103.795 111.297 104.283C111.486 104.77 111.581 105.37 111.581 106.082V106.58H105.694V105.565H110.387C110.387 105.134 110.301 104.75 110.129 104.412C109.96 104.074 109.718 103.807 109.403 103.612C109.092 103.416 108.724 103.318 108.299 103.318C107.832 103.318 107.428 103.434 107.086 103.666C106.748 103.895 106.488 104.193 106.306 104.561C106.123 104.929 106.032 105.323 106.032 105.744V106.42C106.032 106.997 106.132 107.486 106.331 107.887C106.533 108.285 106.813 108.588 107.171 108.797C107.529 109.002 107.945 109.105 108.419 109.105C108.727 109.105 109.005 109.062 109.254 108.976C109.506 108.886 109.723 108.754 109.905 108.578C110.087 108.399 110.228 108.177 110.328 107.912L111.461 108.23C111.342 108.615 111.141 108.953 110.86 109.244C110.578 109.533 110.23 109.758 109.816 109.92C109.401 110.08 108.936 110.159 108.419 110.159ZM118.635 104.074L117.581 104.372C117.514 104.196 117.416 104.026 117.287 103.86C117.161 103.691 116.989 103.552 116.77 103.442C116.551 103.333 116.271 103.278 115.93 103.278C115.463 103.278 115.073 103.386 114.762 103.602C114.453 103.814 114.299 104.084 114.299 104.412C114.299 104.704 114.405 104.934 114.617 105.103C114.83 105.272 115.161 105.413 115.612 105.526L116.745 105.804C117.428 105.97 117.937 106.223 118.272 106.565C118.606 106.903 118.774 107.339 118.774 107.872C118.774 108.31 118.648 108.701 118.396 109.045C118.147 109.39 117.799 109.662 117.352 109.861C116.904 110.06 116.384 110.159 115.791 110.159C115.012 110.159 114.367 109.99 113.857 109.652C113.346 109.314 113.023 108.82 112.887 108.17L114.001 107.892C114.107 108.303 114.308 108.611 114.603 108.817C114.901 109.022 115.29 109.125 115.771 109.125C116.318 109.125 116.752 109.009 117.073 108.777C117.398 108.542 117.561 108.26 117.561 107.932C117.561 107.667 117.468 107.445 117.282 107.266C117.097 107.083 116.812 106.947 116.427 106.858L115.154 106.56C114.455 106.394 113.941 106.137 113.613 105.789C113.288 105.438 113.126 104.999 113.126 104.472C113.126 104.041 113.247 103.66 113.489 103.328C113.734 102.997 114.067 102.737 114.488 102.548C114.912 102.359 115.393 102.264 115.93 102.264C116.686 102.264 117.279 102.43 117.71 102.761C118.144 103.093 118.452 103.53 118.635 104.074ZM125.809 104.074L124.755 104.372C124.689 104.196 124.591 104.026 124.462 103.86C124.336 103.691 124.163 103.552 123.945 103.442C123.726 103.333 123.446 103.278 123.104 103.278C122.637 103.278 122.248 103.386 121.936 103.602C121.628 103.814 121.474 104.084 121.474 104.412C121.474 104.704 121.58 104.934 121.792 105.103C122.004 105.272 122.335 105.413 122.786 105.526L123.92 105.804C124.603 105.97 125.111 106.223 125.446 106.565C125.781 106.903 125.948 107.339 125.948 107.872C125.948 108.31 125.822 108.701 125.57 109.045C125.322 109.39 124.974 109.662 124.526 109.861C124.079 110.06 123.558 110.159 122.965 110.159C122.186 110.159 121.542 109.99 121.031 109.652C120.521 109.314 120.198 108.82 120.062 108.17L121.175 107.892C121.282 108.303 121.482 108.611 121.777 108.817C122.075 109.022 122.465 109.125 122.945 109.125C123.492 109.125 123.926 109.009 124.248 108.777C124.573 108.542 124.735 108.26 124.735 107.932C124.735 107.667 124.642 107.445 124.457 107.266C124.271 107.083 123.986 106.947 123.602 106.858L122.329 106.56C121.63 106.394 121.116 106.137 120.788 105.789C120.463 105.438 120.3 104.999 120.3 104.472C120.3 104.041 120.421 103.66 120.663 103.328C120.909 102.997 121.242 102.737 121.663 102.548C122.087 102.359 122.567 102.264 123.104 102.264C123.86 102.264 124.453 102.43 124.884 102.761C125.318 103.093 125.627 103.53 125.809 104.074ZM130.975 102.364V103.358H126.858V102.364H130.975ZM128.091 110V101.31C128.091 100.872 128.194 100.508 128.4 100.216C128.605 99.9242 128.872 99.7055 129.2 99.5597C129.528 99.4138 129.875 99.3409 130.239 99.3409C130.527 99.3409 130.763 99.3641 130.945 99.4105C131.127 99.4569 131.263 99.5 131.353 99.5398L131.015 100.554C130.955 100.534 130.872 100.509 130.766 100.479C130.663 100.45 130.527 100.435 130.358 100.435C129.971 100.435 129.691 100.532 129.518 100.728C129.349 100.924 129.265 101.21 129.265 101.588V110H128.091ZM137.292 106.878V102.364H138.465V110H137.292V108.707H137.212C137.033 109.095 136.755 109.425 136.377 109.697C135.999 109.965 135.522 110.099 134.945 110.099C134.468 110.099 134.044 109.995 133.672 109.786C133.301 109.574 133.01 109.256 132.797 108.832C132.585 108.404 132.479 107.866 132.479 107.216V102.364H133.653V107.136C133.653 107.693 133.808 108.137 134.12 108.469C134.435 108.8 134.836 108.966 135.323 108.966C135.615 108.966 135.911 108.891 136.213 108.742C136.518 108.593 136.773 108.364 136.979 108.056C137.187 107.748 137.292 107.355 137.292 106.878ZM141.647 99.8182V110H140.474V99.8182H141.647ZM144.83 99.8182V110H143.656V99.8182H144.83ZM147.594 112.864C147.395 112.864 147.218 112.847 147.062 112.814C146.906 112.784 146.799 112.754 146.739 112.724L147.037 111.69C147.322 111.763 147.574 111.79 147.793 111.77C148.012 111.75 148.206 111.652 148.375 111.477C148.547 111.304 148.705 111.024 148.847 110.636L149.066 110.04L146.242 102.364H147.515L149.623 108.449H149.702L151.81 102.364H153.083L149.841 111.114C149.696 111.508 149.515 111.835 149.299 112.093C149.084 112.355 148.834 112.549 148.549 112.675C148.267 112.801 147.949 112.864 147.594 112.864ZM163.698 104.074L162.644 104.372C162.578 104.196 162.48 104.026 162.351 103.86C162.225 103.691 162.053 103.552 161.834 103.442C161.615 103.333 161.335 103.278 160.994 103.278C160.526 103.278 160.137 103.386 159.825 103.602C159.517 103.814 159.363 104.084 159.363 104.412C159.363 104.704 159.469 104.934 159.681 105.103C159.893 105.272 160.225 105.413 160.675 105.526L161.809 105.804C162.492 105.97 163 106.223 163.335 106.565C163.67 106.903 163.837 107.339 163.837 107.872C163.837 108.31 163.711 108.701 163.459 109.045C163.211 109.39 162.863 109.662 162.415 109.861C161.968 110.06 161.448 110.159 160.854 110.159C160.075 110.159 159.431 109.99 158.92 109.652C158.41 109.314 158.087 108.82 157.951 108.17L159.065 107.892C159.171 108.303 159.371 108.611 159.666 108.817C159.964 109.022 160.354 109.125 160.834 109.125C161.381 109.125 161.816 109.009 162.137 108.777C162.462 108.542 162.624 108.26 162.624 107.932C162.624 107.667 162.531 107.445 162.346 107.266C162.16 107.083 161.875 106.947 161.491 106.858L160.218 106.56C159.519 106.394 159.005 106.137 158.677 105.789C158.352 105.438 158.19 104.999 158.19 104.472C158.19 104.041 158.311 103.66 158.553 103.328C158.798 102.997 159.131 102.737 159.552 102.548C159.976 102.359 160.457 102.264 160.994 102.264C161.749 102.264 162.343 102.43 162.773 102.761C163.208 103.093 163.516 103.53 163.698 104.074ZM167.711 110.179C167.227 110.179 166.788 110.088 166.393 109.906C165.999 109.72 165.686 109.453 165.454 109.105C165.222 108.754 165.106 108.33 165.106 107.832C165.106 107.395 165.192 107.04 165.364 106.768C165.536 106.493 165.767 106.278 166.055 106.122C166.343 105.966 166.662 105.85 167.01 105.774C167.361 105.695 167.714 105.632 168.069 105.585C168.533 105.526 168.909 105.481 169.197 105.451C169.489 105.418 169.701 105.363 169.834 105.287C169.969 105.211 170.037 105.078 170.037 104.889V104.849C170.037 104.359 169.903 103.978 169.635 103.706C169.369 103.434 168.967 103.298 168.427 103.298C167.866 103.298 167.427 103.421 167.109 103.666C166.791 103.911 166.567 104.173 166.438 104.452L165.324 104.054C165.523 103.59 165.788 103.229 166.12 102.97C166.454 102.708 166.819 102.526 167.213 102.423C167.611 102.317 168.002 102.264 168.387 102.264C168.632 102.264 168.914 102.294 169.232 102.354C169.553 102.41 169.863 102.528 170.162 102.707C170.463 102.886 170.713 103.156 170.912 103.517C171.111 103.878 171.211 104.362 171.211 104.969V110H170.037V108.966H169.978C169.898 109.132 169.766 109.309 169.58 109.498C169.394 109.687 169.147 109.848 168.839 109.98C168.531 110.113 168.155 110.179 167.711 110.179ZM167.89 109.125C168.354 109.125 168.745 109.034 169.063 108.852C169.384 108.669 169.626 108.434 169.789 108.146C169.954 107.857 170.037 107.554 170.037 107.236V106.162C169.988 106.222 169.878 106.276 169.709 106.326C169.543 106.372 169.351 106.414 169.133 106.45C168.917 106.483 168.707 106.513 168.501 106.54C168.299 106.563 168.135 106.583 168.009 106.599C167.704 106.639 167.419 106.704 167.154 106.793C166.892 106.879 166.68 107.01 166.517 107.186C166.358 107.358 166.279 107.594 166.279 107.892C166.279 108.3 166.43 108.608 166.731 108.817C167.036 109.022 167.422 109.125 167.89 109.125ZM179.183 102.364L176.359 110H175.166L172.342 102.364H173.615L175.723 108.449H175.802L177.91 102.364H179.183ZM183.52 110.159C182.784 110.159 182.149 109.997 181.616 109.672C181.086 109.344 180.676 108.886 180.388 108.3C180.103 107.71 179.96 107.024 179.96 106.241C179.96 105.459 180.103 104.77 180.388 104.173C180.676 103.573 181.077 103.106 181.591 102.771C182.108 102.433 182.711 102.264 183.401 102.264C183.798 102.264 184.191 102.33 184.579 102.463C184.967 102.596 185.32 102.811 185.638 103.109C185.956 103.404 186.21 103.795 186.398 104.283C186.587 104.77 186.682 105.37 186.682 106.082V106.58H180.796V105.565H185.489C185.489 105.134 185.403 104.75 185.23 104.412C185.061 104.074 184.819 103.807 184.504 103.612C184.193 103.416 183.825 103.318 183.401 103.318C182.933 103.318 182.529 103.434 182.188 103.666C181.849 103.895 181.589 104.193 181.407 104.561C181.225 104.929 181.134 105.323 181.134 105.744V106.42C181.134 106.997 181.233 107.486 181.432 107.887C181.634 108.285 181.914 108.588 182.272 108.797C182.63 109.002 183.046 109.105 183.52 109.105C183.828 109.105 184.107 109.062 184.355 108.976C184.607 108.886 184.824 108.754 185.006 108.578C185.189 108.399 185.33 108.177 185.429 107.912L186.563 108.23C186.443 108.615 186.243 108.953 185.961 109.244C185.679 109.533 185.331 109.758 184.917 109.92C184.503 110.08 184.037 110.159 183.52 110.159ZM191.21 110.159C190.574 110.159 190.012 109.998 189.525 109.677C189.038 109.352 188.656 108.895 188.381 108.305C188.106 107.711 187.969 107.01 187.969 106.202C187.969 105.4 188.106 104.704 188.381 104.114C188.656 103.524 189.039 103.068 189.53 102.746C190.02 102.425 190.587 102.264 191.23 102.264C191.727 102.264 192.12 102.347 192.408 102.513C192.7 102.675 192.922 102.861 193.075 103.07C193.23 103.275 193.351 103.444 193.437 103.577H193.537V99.8182H194.71V110H193.577V108.827H193.437C193.351 108.966 193.229 109.142 193.07 109.354C192.91 109.562 192.683 109.75 192.388 109.915C192.093 110.078 191.701 110.159 191.21 110.159ZM191.369 109.105C191.84 109.105 192.238 108.982 192.562 108.737C192.887 108.489 193.134 108.146 193.303 107.708C193.472 107.267 193.557 106.759 193.557 106.182C193.557 105.612 193.474 105.113 193.308 104.685C193.142 104.254 192.897 103.92 192.572 103.681C192.248 103.439 191.847 103.318 191.369 103.318C190.872 103.318 190.458 103.446 190.126 103.701C189.798 103.953 189.551 104.296 189.386 104.73C189.223 105.161 189.142 105.645 189.142 106.182C189.142 106.725 189.225 107.219 189.391 107.663C189.56 108.104 189.808 108.455 190.136 108.717C190.468 108.976 190.879 109.105 191.369 109.105ZM201.256 110H199.964L203.702 99.8182H204.975L208.714 110H207.421L204.378 101.429H204.299L201.256 110ZM201.733 106.023H206.944V107.116H201.733V106.023ZM213.103 110.159C212.387 110.159 211.77 109.99 211.253 109.652C210.736 109.314 210.338 108.848 210.06 108.255C209.782 107.662 209.642 106.984 209.642 106.222C209.642 105.446 209.785 104.762 210.07 104.168C210.358 103.572 210.759 103.106 211.273 102.771C211.79 102.433 212.393 102.264 213.083 102.264C213.62 102.264 214.104 102.364 214.535 102.562C214.965 102.761 215.318 103.04 215.593 103.398C215.869 103.756 216.039 104.173 216.106 104.651H214.932C214.843 104.303 214.644 103.994 214.336 103.726C214.031 103.454 213.62 103.318 213.103 103.318C212.645 103.318 212.244 103.437 211.9 103.676C211.558 103.911 211.291 104.245 211.099 104.675C210.91 105.103 210.816 105.605 210.816 106.182C210.816 106.772 210.909 107.286 211.094 107.723C211.283 108.161 211.548 108.5 211.89 108.742C212.234 108.984 212.639 109.105 213.103 109.105C213.408 109.105 213.684 109.052 213.933 108.946C214.182 108.84 214.392 108.688 214.564 108.489C214.737 108.29 214.859 108.051 214.932 107.773H216.106C216.039 108.223 215.875 108.629 215.613 108.991C215.355 109.349 215.012 109.634 214.584 109.846C214.16 110.055 213.666 110.159 213.103 110.159ZM217.681 110V102.364H218.814V103.557H218.914C219.073 103.149 219.33 102.833 219.684 102.607C220.039 102.379 220.465 102.264 220.962 102.264C221.466 102.264 221.885 102.379 222.22 102.607C222.558 102.833 222.821 103.149 223.01 103.557H223.09C223.285 103.162 223.579 102.849 223.97 102.617C224.361 102.382 224.83 102.264 225.377 102.264C226.06 102.264 226.618 102.478 227.052 102.906C227.486 103.33 227.703 103.991 227.703 104.889V110H226.53V104.889C226.53 104.326 226.376 103.923 226.068 103.681C225.76 103.439 225.397 103.318 224.979 103.318C224.442 103.318 224.026 103.481 223.731 103.805C223.436 104.127 223.289 104.535 223.289 105.028V110H222.096V104.77C222.096 104.336 221.955 103.986 221.673 103.721C221.391 103.452 221.028 103.318 220.584 103.318C220.279 103.318 219.994 103.399 219.729 103.562C219.467 103.724 219.255 103.95 219.093 104.238C218.934 104.523 218.854 104.853 218.854 105.227V110H217.681ZM232.91 110.159C232.175 110.159 231.54 109.997 231.006 109.672C230.476 109.344 230.067 108.886 229.778 108.3C229.493 107.71 229.351 107.024 229.351 106.241C229.351 105.459 229.493 104.77 229.778 104.173C230.067 103.573 230.468 103.106 230.981 102.771C231.498 102.433 232.102 102.264 232.791 102.264C233.189 102.264 233.582 102.33 233.969 102.463C234.357 102.596 234.71 102.811 235.028 103.109C235.346 103.404 235.6 103.795 235.789 104.283C235.978 104.77 236.072 105.37 236.072 106.082V106.58H230.186V105.565H234.879C234.879 105.134 234.793 104.75 234.621 104.412C234.452 104.074 234.21 103.807 233.895 103.612C233.583 103.416 233.215 103.318 232.791 103.318C232.324 103.318 231.919 103.434 231.578 103.666C231.24 103.895 230.98 104.193 230.797 104.561C230.615 104.929 230.524 105.323 230.524 105.744V106.42C230.524 106.997 230.623 107.486 230.822 107.887C231.025 108.285 231.305 108.588 231.663 108.797C232.02 109.002 232.436 109.105 232.91 109.105C233.219 109.105 233.497 109.062 233.746 108.976C233.998 108.886 234.215 108.754 234.397 108.578C234.579 108.399 234.72 108.177 234.82 107.912L235.953 108.23C235.834 108.615 235.633 108.953 235.351 109.244C235.07 109.533 234.722 109.758 234.307 109.92C233.893 110.08 233.427 110.159 232.91 110.159ZM241.674 99.8182H243.145L246.606 108.27H246.725L250.185 99.8182H251.657V110H250.503V102.264H250.404L247.222 110H246.108L242.927 102.264H242.827V110H241.674V99.8182ZM256.077 110.179C255.593 110.179 255.154 110.088 254.759 109.906C254.365 109.72 254.052 109.453 253.82 109.105C253.588 108.754 253.472 108.33 253.472 107.832C253.472 107.395 253.558 107.04 253.73 106.768C253.903 106.493 254.133 106.278 254.421 106.122C254.71 105.966 255.028 105.85 255.376 105.774C255.727 105.695 256.08 105.632 256.435 105.585C256.899 105.526 257.275 105.481 257.563 105.451C257.855 105.418 258.067 105.363 258.2 105.287C258.336 105.211 258.404 105.078 258.404 104.889V104.849C258.404 104.359 258.269 103.978 258.001 103.706C257.736 103.434 257.333 103.298 256.793 103.298C256.233 103.298 255.794 103.421 255.475 103.666C255.157 103.911 254.933 104.173 254.804 104.452L253.691 104.054C253.889 103.59 254.155 103.229 254.486 102.97C254.821 102.708 255.185 102.526 255.58 102.423C255.977 102.317 256.369 102.264 256.753 102.264C256.998 102.264 257.28 102.294 257.598 102.354C257.92 102.41 258.23 102.528 258.528 102.707C258.829 102.886 259.08 103.156 259.279 103.517C259.477 103.878 259.577 104.362 259.577 104.969V110H258.404V108.966H258.344C258.264 109.132 258.132 109.309 257.946 109.498C257.761 109.687 257.514 109.848 257.205 109.98C256.897 110.113 256.521 110.179 256.077 110.179ZM256.256 109.125C256.72 109.125 257.111 109.034 257.429 108.852C257.751 108.669 257.993 108.434 258.155 108.146C258.321 107.857 258.404 107.554 258.404 107.236V106.162C258.354 106.222 258.244 106.276 258.075 106.326C257.91 106.372 257.718 106.414 257.499 106.45C257.283 106.483 257.073 106.513 256.867 106.54C256.665 106.563 256.501 106.583 256.375 106.599C256.07 106.639 255.785 106.704 255.52 106.793C255.258 106.879 255.046 107.01 254.884 107.186C254.725 107.358 254.645 107.594 254.645 107.892C254.645 108.3 254.796 108.608 255.097 108.817C255.402 109.022 255.789 109.125 256.256 109.125ZM261.578 110V102.364H262.712V103.517H262.791C262.931 103.139 263.183 102.833 263.547 102.597C263.912 102.362 264.323 102.244 264.78 102.244C264.866 102.244 264.974 102.246 265.103 102.249C265.233 102.253 265.33 102.258 265.397 102.264V103.457C265.357 103.447 265.266 103.433 265.123 103.413C264.984 103.389 264.836 103.378 264.681 103.378C264.309 103.378 263.978 103.456 263.686 103.612C263.398 103.764 263.169 103.976 263 104.248C262.835 104.516 262.752 104.823 262.752 105.168V110H261.578ZM267.741 107.216L267.721 105.764H267.96L271.301 102.364H272.752L269.193 105.963H269.093L267.741 107.216ZM266.647 110V99.8182H267.821V110H266.647ZM271.5 110L268.517 106.222L269.352 105.406L272.991 110H271.5ZM277.01 110.159C276.274 110.159 275.639 109.997 275.106 109.672C274.575 109.344 274.166 108.886 273.878 108.3C273.593 107.71 273.45 107.024 273.45 106.241C273.45 105.459 273.593 104.77 273.878 104.173C274.166 103.573 274.567 103.106 275.081 102.771C275.598 102.433 276.201 102.264 276.891 102.264C277.288 102.264 277.681 102.33 278.069 102.463C278.457 102.596 278.81 102.811 279.128 103.109C279.446 103.404 279.699 103.795 279.888 104.283C280.077 104.77 280.172 105.37 280.172 106.082V106.58H274.285V105.565H278.979C278.979 105.134 278.892 104.75 278.72 104.412C278.551 104.074 278.309 103.807 277.994 103.612C277.683 103.416 277.315 103.318 276.891 103.318C276.423 103.318 276.019 103.434 275.677 103.666C275.339 103.895 275.079 104.193 274.897 104.561C274.715 104.929 274.624 105.323 274.624 105.744V106.42C274.624 106.997 274.723 107.486 274.922 107.887C275.124 108.285 275.404 108.588 275.762 108.797C276.12 109.002 276.536 109.105 277.01 109.105C277.318 109.105 277.597 109.062 277.845 108.976C278.097 108.886 278.314 108.754 278.496 108.578C278.679 108.399 278.82 108.177 278.919 107.912L280.052 108.23C279.933 108.615 279.733 108.953 279.451 109.244C279.169 109.533 278.821 109.758 278.407 109.92C277.993 110.08 277.527 110.159 277.01 110.159ZM285.138 102.364V103.358H281.18V102.364H285.138ZM282.334 100.534H283.507V107.812C283.507 108.144 283.555 108.393 283.651 108.558C283.751 108.721 283.876 108.83 284.029 108.886C284.185 108.939 284.349 108.966 284.521 108.966C284.65 108.966 284.756 108.959 284.839 108.946C284.922 108.929 284.988 108.916 285.038 108.906L285.277 109.96C285.197 109.99 285.086 110.02 284.944 110.05C284.801 110.083 284.621 110.099 284.402 110.099C284.07 110.099 283.746 110.028 283.427 109.886C283.113 109.743 282.851 109.526 282.642 109.234C282.436 108.943 282.334 108.575 282.334 108.131V100.534ZM286.763 110V102.364H287.936V110H286.763ZM287.359 101.091C287.13 101.091 286.933 101.013 286.768 100.857C286.605 100.701 286.524 100.514 286.524 100.295C286.524 100.077 286.605 99.8894 286.768 99.7337C286.933 99.5779 287.13 99.5 287.359 99.5C287.588 99.5 287.783 99.5779 287.946 99.7337C288.111 99.8894 288.194 100.077 288.194 100.295C288.194 100.514 288.111 100.701 287.946 100.857C287.783 101.013 287.588 101.091 287.359 101.091ZM291.118 105.406V110H289.945V102.364H291.078V103.557H291.178C291.357 103.169 291.629 102.857 291.993 102.622C292.358 102.384 292.828 102.264 293.405 102.264C293.922 102.264 294.374 102.37 294.762 102.582C295.15 102.791 295.452 103.109 295.667 103.537C295.883 103.961 295.99 104.498 295.99 105.148V110H294.817V105.227C294.817 104.627 294.661 104.16 294.35 103.825C294.038 103.487 293.611 103.318 293.067 103.318C292.692 103.318 292.358 103.399 292.063 103.562C291.771 103.724 291.541 103.961 291.372 104.273C291.203 104.584 291.118 104.962 291.118 105.406ZM301.077 113.023C300.51 113.023 300.023 112.95 299.615 112.804C299.207 112.661 298.868 112.473 298.596 112.237C298.327 112.005 298.114 111.757 297.954 111.491L298.889 110.835C298.995 110.974 299.129 111.134 299.292 111.312C299.454 111.495 299.676 111.652 299.958 111.785C300.243 111.921 300.616 111.989 301.077 111.989C301.693 111.989 302.202 111.839 302.603 111.541C303.004 111.243 303.204 110.776 303.204 110.139V108.588H303.105C303.019 108.727 302.896 108.9 302.737 109.105C302.581 109.307 302.356 109.488 302.061 109.647C301.769 109.803 301.375 109.881 300.878 109.881C300.261 109.881 299.708 109.735 299.217 109.443C298.73 109.152 298.344 108.727 298.059 108.17C297.777 107.614 297.636 106.937 297.636 106.142C297.636 105.36 297.774 104.679 298.049 104.099C298.324 103.515 298.707 103.065 299.197 102.746C299.688 102.425 300.255 102.264 300.898 102.264C301.395 102.264 301.789 102.347 302.081 102.513C302.376 102.675 302.601 102.861 302.757 103.07C302.916 103.275 303.039 103.444 303.125 103.577H303.244V102.364H304.378V110.219C304.378 110.875 304.229 111.409 303.93 111.82C303.635 112.234 303.238 112.537 302.737 112.729C302.24 112.925 301.686 113.023 301.077 113.023ZM301.037 108.827C301.508 108.827 301.905 108.719 302.23 108.504C302.555 108.288 302.802 107.978 302.971 107.574C303.14 107.17 303.224 106.686 303.224 106.122C303.224 105.572 303.142 105.086 302.976 104.665C302.81 104.245 302.565 103.915 302.24 103.676C301.915 103.437 301.514 103.318 301.037 103.318C300.54 103.318 300.125 103.444 299.794 103.696C299.466 103.948 299.219 104.286 299.053 104.71C298.891 105.134 298.81 105.605 298.81 106.122C298.81 106.652 298.892 107.121 299.058 107.529C299.227 107.933 299.476 108.252 299.804 108.484C300.135 108.712 300.546 108.827 301.037 108.827ZM312.192 110L309.407 99.8182H310.66L312.788 108.111H312.888L315.055 99.8182H316.447L318.615 108.111H318.714L320.842 99.8182H322.095L319.311 110H318.038L315.791 101.886H315.711L313.464 110H312.192ZM325.823 110.159C325.087 110.159 324.452 109.997 323.919 109.672C323.388 109.344 322.979 108.886 322.691 108.3C322.406 107.71 322.263 107.024 322.263 106.241C322.263 105.459 322.406 104.77 322.691 104.173C322.979 103.573 323.38 103.106 323.894 102.771C324.411 102.433 325.014 102.264 325.704 102.264C326.101 102.264 326.494 102.33 326.882 102.463C327.27 102.596 327.623 102.811 327.941 103.109C328.259 103.404 328.512 103.795 328.701 104.283C328.89 104.77 328.985 105.37 328.985 106.082V106.58H323.098V105.565H327.792C327.792 105.134 327.705 104.75 327.533 104.412C327.364 104.074 327.122 103.807 326.807 103.612C326.496 103.416 326.128 103.318 325.704 103.318C325.236 103.318 324.832 103.434 324.49 103.666C324.152 103.895 323.892 104.193 323.71 104.561C323.528 104.929 323.436 105.323 323.436 105.744V106.42C323.436 106.997 323.536 107.486 323.735 107.887C323.937 108.285 324.217 108.588 324.575 108.797C324.933 109.002 325.349 109.105 325.823 109.105C326.131 109.105 326.409 109.062 326.658 108.976C326.91 108.886 327.127 108.754 327.309 108.578C327.492 108.399 327.632 108.177 327.732 107.912L328.865 108.23C328.746 108.615 328.546 108.953 328.264 109.244C327.982 109.533 327.634 109.758 327.22 109.92C326.806 110.08 326.34 110.159 325.823 110.159ZM330.789 110V99.8182H331.962V103.577H332.061C332.148 103.444 332.267 103.275 332.419 103.07C332.575 102.861 332.797 102.675 333.086 102.513C333.377 102.347 333.772 102.264 334.269 102.264C334.912 102.264 335.479 102.425 335.969 102.746C336.46 103.068 336.842 103.524 337.117 104.114C337.393 104.704 337.53 105.4 337.53 106.202C337.53 107.01 337.393 107.711 337.117 108.305C336.842 108.895 336.461 109.352 335.974 109.677C335.487 109.998 334.925 110.159 334.289 110.159C333.798 110.159 333.405 110.078 333.11 109.915C332.815 109.75 332.588 109.562 332.429 109.354C332.27 109.142 332.148 108.966 332.061 108.827H331.922V110H330.789ZM331.942 106.182C331.942 106.759 332.027 107.267 332.196 107.708C332.365 108.146 332.612 108.489 332.936 108.737C333.261 108.982 333.659 109.105 334.13 109.105C334.62 109.105 335.029 108.976 335.358 108.717C335.689 108.455 335.938 108.104 336.103 107.663C336.272 107.219 336.357 106.725 336.357 106.182C336.357 105.645 336.274 105.161 336.108 104.73C335.946 104.296 335.699 103.953 335.367 103.701C335.039 103.446 334.627 103.318 334.13 103.318C333.652 103.318 333.251 103.439 332.926 103.681C332.602 103.92 332.356 104.254 332.191 104.685C332.025 105.113 331.942 105.612 331.942 106.182ZM344.594 104.074L343.54 104.372C343.474 104.196 343.376 104.026 343.247 103.86C343.121 103.691 342.948 103.552 342.73 103.442C342.511 103.333 342.231 103.278 341.889 103.278C341.422 103.278 341.033 103.386 340.721 103.602C340.413 103.814 340.259 104.084 340.259 104.412C340.259 104.704 340.365 104.934 340.577 105.103C340.789 105.272 341.12 105.413 341.571 105.526L342.705 105.804C343.388 105.97 343.896 106.223 344.231 106.565C344.566 106.903 344.733 107.339 344.733 107.872C344.733 108.31 344.607 108.701 344.355 109.045C344.107 109.39 343.759 109.662 343.311 109.861C342.864 110.06 342.344 110.159 341.75 110.159C340.971 110.159 340.327 109.99 339.816 109.652C339.306 109.314 338.983 108.82 338.847 108.17L339.96 107.892C340.067 108.303 340.267 108.611 340.562 108.817C340.86 109.022 341.25 109.125 341.73 109.125C342.277 109.125 342.711 109.009 343.033 108.777C343.358 108.542 343.52 108.26 343.52 107.932C343.52 107.667 343.427 107.445 343.242 107.266C343.056 107.083 342.771 106.947 342.387 106.858L341.114 106.56C340.415 106.394 339.901 106.137 339.573 105.789C339.248 105.438 339.085 104.999 339.085 104.472C339.085 104.041 339.206 103.66 339.448 103.328C339.694 102.997 340.027 102.737 340.448 102.548C340.872 102.359 341.353 102.264 341.889 102.264C342.645 102.264 343.238 102.43 343.669 102.761C344.103 103.093 344.412 103.53 344.594 104.074ZM346.359 110V102.364H347.533V110H346.359ZM346.956 101.091C346.727 101.091 346.53 101.013 346.364 100.857C346.202 100.701 346.121 100.514 346.121 100.295C346.121 100.077 346.202 99.8894 346.364 99.7337C346.53 99.5779 346.727 99.5 346.956 99.5C347.185 99.5 347.38 99.5779 347.543 99.7337C347.708 99.8894 347.791 100.077 347.791 100.295C347.791 100.514 347.708 100.701 347.543 100.857C347.38 101.013 347.185 101.091 346.956 101.091ZM352.863 102.364V103.358H348.905V102.364H352.863ZM350.059 100.534H351.232V107.812C351.232 108.144 351.28 108.393 351.376 108.558C351.476 108.721 351.602 108.83 351.754 108.886C351.91 108.939 352.074 108.966 352.246 108.966C352.375 108.966 352.481 108.959 352.564 108.946C352.647 108.929 352.713 108.916 352.763 108.906L353.002 109.96C352.922 109.99 352.811 110.02 352.669 110.05C352.526 110.083 352.346 110.099 352.127 110.099C351.795 110.099 351.471 110.028 351.152 109.886C350.838 109.743 350.576 109.526 350.367 109.234C350.161 108.943 350.059 108.575 350.059 108.131V100.534ZM357.607 110.159C356.871 110.159 356.237 109.997 355.703 109.672C355.173 109.344 354.763 108.886 354.475 108.3C354.19 107.71 354.048 107.024 354.048 106.241C354.048 105.459 354.19 104.77 354.475 104.173C354.763 103.573 355.164 103.106 355.678 102.771C356.195 102.433 356.798 102.264 357.488 102.264C357.886 102.264 358.278 102.33 358.666 102.463C359.054 102.596 359.407 102.811 359.725 103.109C360.043 103.404 360.297 103.795 360.486 104.283C360.675 104.77 360.769 105.37 360.769 106.082V106.58H354.883V105.565H359.576C359.576 105.134 359.49 104.75 359.317 104.412C359.148 104.074 358.906 103.807 358.592 103.612C358.28 103.416 357.912 103.318 357.488 103.318C357.021 103.318 356.616 103.434 356.275 103.666C355.937 103.895 355.677 104.193 355.494 104.561C355.312 104.929 355.221 105.323 355.221 105.744V106.42C355.221 106.997 355.32 107.486 355.519 107.887C355.721 108.285 356.001 108.588 356.359 108.797C356.717 109.002 357.133 109.105 357.607 109.105C357.915 109.105 358.194 109.062 358.442 108.976C358.694 108.886 358.911 108.754 359.094 108.578C359.276 108.399 359.417 108.177 359.516 107.912L360.65 108.23C360.53 108.615 360.33 108.953 360.048 109.244C359.767 109.533 359.419 109.758 359.004 109.92C358.59 110.08 358.124 110.159 357.607 110.159ZM372.456 102.364L369.632 110H368.439L365.615 102.364H366.888L368.996 108.449H369.075L371.183 102.364H372.456ZM374.241 110.08C373.996 110.08 373.785 109.992 373.61 109.816C373.434 109.64 373.346 109.43 373.346 109.185C373.346 108.939 373.434 108.729 373.61 108.553C373.785 108.378 373.996 108.29 374.241 108.29C374.486 108.29 374.697 108.378 374.872 108.553C375.048 108.729 375.136 108.939 375.136 109.185C375.136 109.347 375.094 109.496 375.012 109.632C374.932 109.768 374.824 109.877 374.688 109.96C374.556 110.04 374.407 110.08 374.241 110.08ZM380.047 110.139C379.298 110.139 378.66 109.935 378.133 109.528C377.606 109.117 377.203 108.522 376.925 107.743C376.646 106.961 376.507 106.016 376.507 104.909C376.507 103.809 376.646 102.869 376.925 102.09C377.207 101.308 377.611 100.711 378.138 100.3C378.668 99.8861 379.305 99.679 380.047 99.679C380.789 99.679 381.424 99.8861 381.951 100.3C382.481 100.711 382.886 101.308 383.164 102.09C383.446 102.869 383.587 103.809 383.587 104.909C383.587 106.016 383.448 106.961 383.169 107.743C382.891 108.522 382.488 109.117 381.961 109.528C381.434 109.935 380.796 110.139 380.047 110.139ZM380.047 109.045C380.789 109.045 381.366 108.687 381.777 107.972C382.188 107.256 382.394 106.235 382.394 104.909C382.394 104.027 382.299 103.277 382.11 102.657C381.925 102.037 381.656 101.565 381.305 101.24C380.957 100.915 380.538 100.753 380.047 100.753C379.311 100.753 378.736 101.116 378.322 101.842C377.908 102.564 377.7 103.587 377.7 104.909C377.7 105.791 377.793 106.54 377.979 107.156C378.164 107.773 378.431 108.242 378.779 108.563C379.131 108.885 379.553 109.045 380.047 109.045ZM385.856 110.08C385.61 110.08 385.4 109.992 385.224 109.816C385.048 109.64 384.961 109.43 384.961 109.185C384.961 108.939 385.048 108.729 385.224 108.553C385.4 108.378 385.61 108.29 385.856 108.29C386.101 108.29 386.311 108.378 386.487 108.553C386.663 108.729 386.75 108.939 386.75 109.185C386.75 109.347 386.709 109.496 386.626 109.632C386.547 109.768 386.439 109.877 386.303 109.96C386.17 110.04 386.021 110.08 385.856 110.08ZM391.662 110.139C390.913 110.139 390.274 109.935 389.747 109.528C389.221 109.117 388.818 108.522 388.539 107.743C388.261 106.961 388.122 106.016 388.122 104.909C388.122 103.809 388.261 102.869 388.539 102.09C388.821 101.308 389.225 100.711 389.752 100.3C390.283 99.8861 390.919 99.679 391.662 99.679C392.404 99.679 393.039 99.8861 393.566 100.3C394.096 100.711 394.5 101.308 394.779 102.09C395.06 102.869 395.201 103.809 395.201 104.909C395.201 106.016 395.062 106.961 394.784 107.743C394.505 108.522 394.103 109.117 393.576 109.528C393.049 109.935 392.411 110.139 391.662 110.139ZM391.662 109.045C392.404 109.045 392.981 108.687 393.392 107.972C393.803 107.256 394.008 106.235 394.008 104.909C394.008 104.027 393.914 103.277 393.725 102.657C393.539 102.037 393.271 101.565 392.919 101.24C392.571 100.915 392.152 100.753 391.662 100.753C390.926 100.753 390.351 101.116 389.936 101.842C389.522 102.564 389.315 103.587 389.315 104.909C389.315 105.791 389.408 106.54 389.593 107.156C389.779 107.773 390.046 108.242 390.394 108.563C390.745 108.885 391.168 109.045 391.662 109.045ZM397.47 110.08C397.225 110.08 397.014 109.992 396.839 109.816C396.663 109.64 396.575 109.43 396.575 109.185C396.575 108.939 396.663 108.729 396.839 108.553C397.014 108.378 397.225 108.29 397.47 108.29C397.715 108.29 397.926 108.378 398.101 108.553C398.277 108.729 398.365 108.939 398.365 109.185C398.365 109.347 398.324 109.496 398.241 109.632C398.161 109.768 398.053 109.877 397.918 109.96C397.785 110.04 397.636 110.08 397.47 110.08ZM402.673 99.8182V110H401.44V101.111H401.381L398.895 102.761V101.509L401.44 99.8182H402.673Z" fill="#749FF6"/>
<path d="M73.233 137V126.818H76.6733C77.4721 126.818 78.125 126.962 78.6321 127.251C79.1425 127.536 79.5204 127.922 79.7656 128.409C80.0109 128.896 80.1335 129.44 80.1335 130.04C80.1335 130.64 80.0109 131.185 79.7656 131.675C79.5237 132.166 79.1491 132.557 78.642 132.849C78.1349 133.137 77.4853 133.281 76.6932 133.281H74.2273V132.188H76.6534C77.2003 132.188 77.6394 132.093 77.9709 131.904C78.3023 131.715 78.5426 131.46 78.6918 131.138C78.8442 130.814 78.9205 130.447 78.9205 130.04C78.9205 129.632 78.8442 129.268 78.6918 128.946C78.5426 128.625 78.3007 128.373 77.9659 128.19C77.6312 128.005 77.187 127.912 76.6335 127.912H74.4659V137H73.233ZM86.6331 133.878V129.364H87.8064V137H86.6331V135.707H86.5535C86.3746 136.095 86.0962 136.425 85.7183 136.697C85.3405 136.965 84.8632 137.099 84.2865 137.099C83.8092 137.099 83.385 136.995 83.0138 136.786C82.6426 136.574 82.3509 136.256 82.1388 135.832C81.9266 135.404 81.8206 134.866 81.8206 134.216V129.364H82.9939V134.136C82.9939 134.693 83.1497 135.137 83.4612 135.469C83.7761 135.8 84.1771 135.966 84.6643 135.966C84.956 135.966 85.2526 135.891 85.5542 135.742C85.8592 135.593 86.1144 135.364 86.3199 135.056C86.5287 134.748 86.6331 134.355 86.6331 133.878ZM95.2244 131.074L94.1705 131.372C94.1042 131.196 94.0064 131.026 93.8771 130.86C93.7512 130.691 93.5788 130.552 93.3601 130.442C93.1413 130.333 92.8613 130.278 92.5199 130.278C92.0526 130.278 91.6631 130.386 91.3516 130.602C91.0433 130.814 90.8892 131.084 90.8892 131.412C90.8892 131.704 90.9953 131.934 91.2074 132.103C91.4195 132.272 91.751 132.413 92.2017 132.526L93.3352 132.804C94.018 132.97 94.5268 133.223 94.8615 133.565C95.1963 133.903 95.3636 134.339 95.3636 134.872C95.3636 135.31 95.2377 135.701 94.9858 136.045C94.7372 136.39 94.3892 136.662 93.9418 136.861C93.4943 137.06 92.974 137.159 92.3807 137.159C91.6018 137.159 90.9572 136.99 90.4467 136.652C89.9363 136.314 89.6132 135.82 89.4773 135.17L90.5909 134.892C90.697 135.303 90.8975 135.611 91.1925 135.817C91.4908 136.022 91.8802 136.125 92.3608 136.125C92.9077 136.125 93.3419 136.009 93.6634 135.777C93.9882 135.542 94.1506 135.26 94.1506 134.932C94.1506 134.667 94.0578 134.445 93.8722 134.266C93.6866 134.083 93.4015 133.947 93.0171 133.858L91.7443 133.56C91.045 133.394 90.5313 133.137 90.2031 132.789C89.8783 132.438 89.7159 131.999 89.7159 131.472C89.7159 131.041 89.8369 130.66 90.0788 130.328C90.3241 129.997 90.6572 129.737 91.0781 129.548C91.5024 129.359 91.983 129.264 92.5199 129.264C93.2756 129.264 93.8689 129.43 94.2997 129.761C94.7339 130.093 95.0421 130.53 95.2244 131.074ZM98.1631 132.406V137H96.9898V126.818H98.1631V130.557H98.2625C98.4415 130.162 98.71 129.849 99.0679 129.617C99.4292 129.382 99.9098 129.264 100.51 129.264C101.03 129.264 101.486 129.369 101.877 129.577C102.268 129.783 102.571 130.099 102.787 130.527C103.005 130.951 103.115 131.491 103.115 132.148V137H101.942V132.227C101.942 131.621 101.784 131.152 101.469 130.82C101.158 130.486 100.725 130.318 100.172 130.318C99.7871 130.318 99.4425 130.399 99.1375 130.562C98.8359 130.724 98.5973 130.961 98.4216 131.273C98.2493 131.584 98.1631 131.962 98.1631 132.406ZM108.323 137.159C107.587 137.159 106.952 136.997 106.419 136.672C105.889 136.344 105.479 135.886 105.191 135.3C104.906 134.71 104.763 134.024 104.763 133.241C104.763 132.459 104.906 131.77 105.191 131.173C105.479 130.573 105.88 130.106 106.394 129.771C106.911 129.433 107.514 129.264 108.204 129.264C108.601 129.264 108.994 129.33 109.382 129.463C109.77 129.596 110.123 129.811 110.441 130.109C110.759 130.404 111.013 130.795 111.202 131.283C111.39 131.77 111.485 132.37 111.485 133.082V133.58H105.599V132.565H110.292C110.292 132.134 110.206 131.75 110.033 131.412C109.864 131.074 109.622 130.807 109.307 130.612C108.996 130.416 108.628 130.318 108.204 130.318C107.736 130.318 107.332 130.434 106.991 130.666C106.653 130.895 106.392 131.193 106.21 131.561C106.028 131.929 105.937 132.323 105.937 132.744V133.42C105.937 133.997 106.036 134.486 106.235 134.887C106.437 135.285 106.717 135.588 107.075 135.797C107.433 136.002 107.849 136.105 108.323 136.105C108.631 136.105 108.91 136.062 109.158 135.976C109.41 135.886 109.627 135.754 109.809 135.578C109.992 135.399 110.133 135.177 110.232 134.912L111.366 135.23C111.246 135.615 111.046 135.953 110.764 136.244C110.482 136.533 110.134 136.758 109.72 136.92C109.306 137.08 108.84 137.159 108.323 137.159ZM116.013 137.159C115.377 137.159 114.815 136.998 114.328 136.677C113.841 136.352 113.46 135.895 113.184 135.305C112.909 134.711 112.772 134.01 112.772 133.202C112.772 132.4 112.909 131.704 113.184 131.114C113.46 130.524 113.842 130.068 114.333 129.746C114.823 129.425 115.39 129.264 116.033 129.264C116.53 129.264 116.923 129.347 117.211 129.513C117.503 129.675 117.725 129.861 117.878 130.07C118.033 130.275 118.154 130.444 118.241 130.577H118.34V126.818H119.513V137H118.38V135.827H118.241C118.154 135.966 118.032 136.142 117.873 136.354C117.714 136.562 117.486 136.75 117.192 136.915C116.897 137.078 116.504 137.159 116.013 137.159ZM116.172 136.105C116.643 136.105 117.041 135.982 117.366 135.737C117.69 135.489 117.937 135.146 118.106 134.708C118.275 134.267 118.36 133.759 118.36 133.182C118.36 132.612 118.277 132.113 118.111 131.685C117.946 131.254 117.7 130.92 117.375 130.681C117.051 130.439 116.65 130.318 116.172 130.318C115.675 130.318 115.261 130.446 114.929 130.701C114.601 130.953 114.354 131.296 114.189 131.73C114.026 132.161 113.945 132.645 113.945 133.182C113.945 133.725 114.028 134.219 114.194 134.663C114.363 135.104 114.611 135.455 114.939 135.717C115.271 135.976 115.682 136.105 116.172 136.105ZM130.295 133.878V129.364H131.468V137H130.295V135.707H130.215C130.037 136.095 129.758 136.425 129.38 136.697C129.002 136.965 128.525 137.099 127.948 137.099C127.471 137.099 127.047 136.995 126.676 136.786C126.305 136.574 126.013 136.256 125.801 135.832C125.589 135.404 125.483 134.866 125.483 134.216V129.364H126.656V134.136C126.656 134.693 126.812 135.137 127.123 135.469C127.438 135.8 127.839 135.966 128.326 135.966C128.618 135.966 128.915 135.891 129.216 135.742C129.521 135.593 129.776 135.364 129.982 135.056C130.191 134.748 130.295 134.355 130.295 133.878ZM133.477 139.864V129.364H134.611V130.577H134.75C134.836 130.444 134.956 130.275 135.108 130.07C135.264 129.861 135.486 129.675 135.774 129.513C136.066 129.347 136.46 129.264 136.957 129.264C137.6 129.264 138.167 129.425 138.658 129.746C139.148 130.068 139.531 130.524 139.806 131.114C140.081 131.704 140.219 132.4 140.219 133.202C140.219 134.01 140.081 134.711 139.806 135.305C139.531 135.895 139.15 136.352 138.663 136.677C138.175 136.998 137.614 137.159 136.977 137.159C136.487 137.159 136.094 137.078 135.799 136.915C135.504 136.75 135.277 136.562 135.118 136.354C134.959 136.142 134.836 135.966 134.75 135.827H134.651V139.864H133.477ZM134.631 133.182C134.631 133.759 134.715 134.267 134.884 134.708C135.053 135.146 135.3 135.489 135.625 135.737C135.95 135.982 136.348 136.105 136.818 136.105C137.309 136.105 137.718 135.976 138.046 135.717C138.378 135.455 138.626 135.104 138.792 134.663C138.961 134.219 139.045 133.725 139.045 133.182C139.045 132.645 138.963 132.161 138.797 131.73C138.634 131.296 138.388 130.953 138.056 130.701C137.728 130.446 137.315 130.318 136.818 130.318C136.341 130.318 135.94 130.439 135.615 130.681C135.29 130.92 135.045 131.254 134.879 131.685C134.714 132.113 134.631 132.612 134.631 133.182ZM144.752 137.159C144.116 137.159 143.554 136.998 143.067 136.677C142.579 136.352 142.198 135.895 141.923 135.305C141.648 134.711 141.511 134.01 141.511 133.202C141.511 132.4 141.648 131.704 141.923 131.114C142.198 130.524 142.581 130.068 143.072 129.746C143.562 129.425 144.129 129.264 144.772 129.264C145.269 129.264 145.662 129.347 145.95 129.513C146.242 129.675 146.464 129.861 146.616 130.07C146.772 130.275 146.893 130.444 146.979 130.577H147.079V126.818H148.252V137H147.119V135.827H146.979C146.893 135.966 146.771 136.142 146.611 136.354C146.452 136.562 146.225 136.75 145.93 136.915C145.635 137.078 145.243 137.159 144.752 137.159ZM144.911 136.105C145.382 136.105 145.78 135.982 146.104 135.737C146.429 135.489 146.676 135.146 146.845 134.708C147.014 134.267 147.099 133.759 147.099 133.182C147.099 132.612 147.016 132.113 146.85 131.685C146.684 131.254 146.439 130.92 146.114 130.681C145.789 130.439 145.388 130.318 144.911 130.318C144.414 130.318 144 130.446 143.668 130.701C143.34 130.953 143.093 131.296 142.927 131.73C142.765 132.161 142.684 132.645 142.684 133.182C142.684 133.725 142.767 134.219 142.932 134.663C143.102 135.104 143.35 135.455 143.678 135.717C144.01 135.976 144.421 136.105 144.911 136.105ZM152.671 137.179C152.187 137.179 151.748 137.088 151.354 136.906C150.959 136.72 150.646 136.453 150.414 136.105C150.182 135.754 150.066 135.33 150.066 134.832C150.066 134.395 150.152 134.04 150.324 133.768C150.497 133.493 150.727 133.278 151.015 133.122C151.304 132.966 151.622 132.85 151.97 132.774C152.321 132.695 152.674 132.632 153.029 132.585C153.493 132.526 153.869 132.481 154.158 132.451C154.449 132.418 154.661 132.363 154.794 132.287C154.93 132.211 154.998 132.078 154.998 131.889V131.849C154.998 131.359 154.863 130.978 154.595 130.706C154.33 130.434 153.927 130.298 153.387 130.298C152.827 130.298 152.388 130.421 152.069 130.666C151.751 130.911 151.528 131.173 151.398 131.452L150.285 131.054C150.484 130.59 150.749 130.229 151.08 129.97C151.415 129.708 151.779 129.526 152.174 129.423C152.572 129.317 152.963 129.264 153.347 129.264C153.592 129.264 153.874 129.294 154.192 129.354C154.514 129.41 154.824 129.528 155.122 129.707C155.424 129.886 155.674 130.156 155.873 130.517C156.072 130.878 156.171 131.362 156.171 131.969V137H154.998V135.966H154.938C154.859 136.132 154.726 136.309 154.54 136.498C154.355 136.687 154.108 136.848 153.8 136.98C153.491 137.113 153.115 137.179 152.671 137.179ZM152.85 136.125C153.314 136.125 153.705 136.034 154.023 135.852C154.345 135.669 154.587 135.434 154.749 135.146C154.915 134.857 154.998 134.554 154.998 134.236V133.162C154.948 133.222 154.839 133.276 154.67 133.326C154.504 133.372 154.312 133.414 154.093 133.45C153.877 133.483 153.667 133.513 153.462 133.54C153.259 133.563 153.095 133.583 152.969 133.599C152.664 133.639 152.379 133.704 152.114 133.793C151.852 133.879 151.64 134.01 151.478 134.186C151.319 134.358 151.239 134.594 151.239 134.892C151.239 135.3 151.39 135.608 151.692 135.817C151.997 136.022 152.383 136.125 152.85 136.125ZM161.494 129.364V130.358H157.536V129.364H161.494ZM158.69 127.534H159.863V134.812C159.863 135.144 159.911 135.393 160.007 135.558C160.106 135.721 160.232 135.83 160.385 135.886C160.541 135.939 160.705 135.966 160.877 135.966C161.006 135.966 161.112 135.959 161.195 135.946C161.278 135.929 161.344 135.916 161.394 135.906L161.633 136.96C161.553 136.99 161.442 137.02 161.3 137.05C161.157 137.083 160.977 137.099 160.758 137.099C160.426 137.099 160.102 137.028 159.783 136.886C159.468 136.743 159.207 136.526 158.998 136.234C158.792 135.943 158.69 135.575 158.69 135.131V127.534ZM166.238 137.159C165.502 137.159 164.868 136.997 164.334 136.672C163.804 136.344 163.394 135.886 163.106 135.3C162.821 134.71 162.678 134.024 162.678 133.241C162.678 132.459 162.821 131.77 163.106 131.173C163.394 130.573 163.795 130.106 164.309 129.771C164.826 129.433 165.429 129.264 166.119 129.264C166.517 129.264 166.909 129.33 167.297 129.463C167.685 129.596 168.038 129.811 168.356 130.109C168.674 130.404 168.928 130.795 169.117 131.283C169.306 131.77 169.4 132.37 169.4 133.082V133.58H163.514V132.565H168.207C168.207 132.134 168.121 131.75 167.948 131.412C167.779 131.074 167.537 130.807 167.223 130.612C166.911 130.416 166.543 130.318 166.119 130.318C165.651 130.318 165.247 130.434 164.906 130.666C164.568 130.895 164.308 131.193 164.125 131.561C163.943 131.929 163.852 132.323 163.852 132.744V133.42C163.852 133.997 163.951 134.486 164.15 134.887C164.352 135.285 164.632 135.588 164.99 135.797C165.348 136.002 165.764 136.105 166.238 136.105C166.546 136.105 166.825 136.062 167.073 135.976C167.325 135.886 167.542 135.754 167.725 135.578C167.907 135.399 168.048 135.177 168.147 134.912L169.281 135.23C169.161 135.615 168.961 135.953 168.679 136.244C168.397 136.533 168.049 136.758 167.635 136.92C167.221 137.08 166.755 137.159 166.238 137.159ZM176.454 131.074L175.4 131.372C175.334 131.196 175.236 131.026 175.107 130.86C174.981 130.691 174.808 130.552 174.59 130.442C174.371 130.333 174.091 130.278 173.749 130.278C173.282 130.278 172.893 130.386 172.581 130.602C172.273 130.814 172.119 131.084 172.119 131.412C172.119 131.704 172.225 131.934 172.437 132.103C172.649 132.272 172.98 132.413 173.431 132.526L174.565 132.804C175.248 132.97 175.756 133.223 176.091 133.565C176.426 133.903 176.593 134.339 176.593 134.872C176.593 135.31 176.467 135.701 176.215 136.045C175.967 136.39 175.619 136.662 175.171 136.861C174.724 137.06 174.203 137.159 173.61 137.159C172.831 137.159 172.187 136.99 171.676 136.652C171.166 136.314 170.843 135.82 170.707 135.17L171.82 134.892C171.927 135.303 172.127 135.611 172.422 135.817C172.72 136.022 173.11 136.125 173.59 136.125C174.137 136.125 174.571 136.009 174.893 135.777C175.218 135.542 175.38 135.26 175.38 134.932C175.38 134.667 175.287 134.445 175.102 134.266C174.916 134.083 174.631 133.947 174.247 133.858L172.974 133.56C172.275 133.394 171.761 133.137 171.433 132.789C171.108 132.438 170.945 131.999 170.945 131.472C170.945 131.041 171.066 130.66 171.308 130.328C171.554 129.997 171.887 129.737 172.308 129.548C172.732 129.359 173.212 129.264 173.749 129.264C174.505 129.264 175.098 129.43 175.529 129.761C175.963 130.093 176.272 130.53 176.454 131.074ZM185.338 129.364V130.358H181.38V129.364H185.338ZM182.534 127.534H183.707V134.812C183.707 135.144 183.755 135.393 183.851 135.558C183.951 135.721 184.077 135.83 184.229 135.886C184.385 135.939 184.549 135.966 184.721 135.966C184.851 135.966 184.957 135.959 185.04 135.946C185.122 135.929 185.189 135.916 185.238 135.906L185.477 136.96C185.398 136.99 185.286 137.02 185.144 137.05C185.001 137.083 184.821 137.099 184.602 137.099C184.271 137.099 183.946 137.028 183.628 136.886C183.313 136.743 183.051 136.526 182.842 136.234C182.637 135.943 182.534 135.575 182.534 135.131V127.534ZM189.983 137.159C189.294 137.159 188.689 136.995 188.168 136.667C187.651 136.339 187.247 135.88 186.955 135.29C186.667 134.7 186.523 134.01 186.523 133.222C186.523 132.426 186.667 131.732 186.955 131.138C187.247 130.545 187.651 130.085 188.168 129.756C188.689 129.428 189.294 129.264 189.983 129.264C190.672 129.264 191.276 129.428 191.793 129.756C192.313 130.085 192.717 130.545 193.006 131.138C193.297 131.732 193.443 132.426 193.443 133.222C193.443 134.01 193.297 134.7 193.006 135.29C192.717 135.88 192.313 136.339 191.793 136.667C191.276 136.995 190.672 137.159 189.983 137.159ZM189.983 136.105C190.507 136.105 190.938 135.971 191.276 135.702C191.614 135.434 191.864 135.081 192.026 134.643C192.189 134.206 192.27 133.732 192.27 133.222C192.27 132.711 192.189 132.236 192.026 131.795C191.864 131.354 191.614 130.998 191.276 130.726C190.938 130.454 190.507 130.318 189.983 130.318C189.459 130.318 189.028 130.454 188.69 130.726C188.352 130.998 188.102 131.354 187.94 131.795C187.777 132.236 187.696 132.711 187.696 133.222C187.696 133.732 187.777 134.206 187.94 134.643C188.102 135.081 188.352 135.434 188.69 135.702C189.028 135.971 189.459 136.105 189.983 136.105ZM207.244 130H206.011C205.938 129.645 205.811 129.334 205.628 129.065C205.449 128.797 205.231 128.571 204.972 128.389C204.717 128.204 204.433 128.064 204.122 127.972C203.81 127.879 203.486 127.832 203.147 127.832C202.531 127.832 201.972 127.988 201.472 128.3C200.975 128.611 200.579 129.07 200.284 129.677C199.992 130.283 199.846 131.027 199.846 131.909C199.846 132.791 199.992 133.535 200.284 134.141C200.579 134.748 200.975 135.207 201.472 135.518C201.972 135.83 202.531 135.986 203.147 135.986C203.486 135.986 203.81 135.939 204.122 135.847C204.433 135.754 204.717 135.616 204.972 135.434C205.231 135.248 205.449 135.021 205.628 134.753C205.811 134.481 205.938 134.17 206.011 133.818H207.244C207.151 134.339 206.982 134.804 206.737 135.215C206.492 135.626 206.187 135.976 205.822 136.264C205.458 136.549 205.048 136.766 204.594 136.915C204.143 137.065 203.661 137.139 203.147 137.139C202.279 137.139 201.507 136.927 200.831 136.503C200.155 136.079 199.623 135.475 199.235 134.693C198.847 133.911 198.653 132.983 198.653 131.909C198.653 130.835 198.847 129.907 199.235 129.125C199.623 128.343 200.155 127.74 200.831 127.315C201.507 126.891 202.279 126.679 203.147 126.679C203.661 126.679 204.143 126.754 204.594 126.903C205.048 127.052 205.458 127.271 205.822 127.559C206.187 127.844 206.492 128.192 206.737 128.603C206.982 129.011 207.151 129.476 207.244 130ZM212.238 137H209.096V126.818H212.378C213.365 126.818 214.21 127.022 214.913 127.43C215.616 127.834 216.154 128.416 216.529 129.175C216.903 129.93 217.091 130.835 217.091 131.889C217.091 132.95 216.902 133.863 216.524 134.629C216.146 135.391 215.596 135.978 214.873 136.388C214.151 136.796 213.273 137 212.238 137ZM210.329 135.906H212.159C213.001 135.906 213.698 135.744 214.252 135.419C214.805 135.094 215.218 134.632 215.49 134.032C215.762 133.432 215.898 132.718 215.898 131.889C215.898 131.067 215.763 130.36 215.495 129.766C215.226 129.17 214.825 128.712 214.292 128.394C213.758 128.073 213.094 127.912 212.298 127.912H210.329V135.906ZM227.093 126.818V137H225.9L220.351 129.006H220.252V137H219.019V126.818H220.212L225.78 134.832H225.88V126.818H227.093ZM236.161 137.159C235.445 137.159 234.828 136.99 234.311 136.652C233.794 136.314 233.396 135.848 233.118 135.255C232.84 134.662 232.7 133.984 232.7 133.222C232.7 132.446 232.843 131.762 233.128 131.168C233.416 130.572 233.817 130.106 234.331 129.771C234.848 129.433 235.451 129.264 236.141 129.264C236.678 129.264 237.162 129.364 237.592 129.562C238.023 129.761 238.376 130.04 238.651 130.398C238.926 130.756 239.097 131.173 239.163 131.651H237.99C237.901 131.303 237.702 130.994 237.394 130.726C237.089 130.454 236.678 130.318 236.161 130.318C235.703 130.318 235.302 130.437 234.957 130.676C234.616 130.911 234.349 131.245 234.157 131.675C233.968 132.103 233.874 132.605 233.874 133.182C233.874 133.772 233.966 134.286 234.152 134.723C234.341 135.161 234.606 135.5 234.948 135.742C235.292 135.984 235.697 136.105 236.161 136.105C236.466 136.105 236.742 136.052 236.991 135.946C237.239 135.84 237.45 135.688 237.622 135.489C237.795 135.29 237.917 135.051 237.99 134.773H239.163C239.097 135.223 238.933 135.629 238.671 135.991C238.413 136.349 238.07 136.634 237.642 136.846C237.218 137.055 236.724 137.159 236.161 137.159ZM242.986 137.179C242.502 137.179 242.063 137.088 241.668 136.906C241.274 136.72 240.961 136.453 240.729 136.105C240.497 135.754 240.381 135.33 240.381 134.832C240.381 134.395 240.467 134.04 240.639 133.768C240.812 133.493 241.042 133.278 241.33 133.122C241.619 132.966 241.937 132.85 242.285 132.774C242.636 132.695 242.989 132.632 243.344 132.585C243.808 132.526 244.184 132.481 244.472 132.451C244.764 132.418 244.976 132.363 245.109 132.287C245.245 132.211 245.312 132.078 245.312 131.889V131.849C245.312 131.359 245.178 130.978 244.91 130.706C244.645 130.434 244.242 130.298 243.702 130.298C243.142 130.298 242.702 130.421 242.384 130.666C242.066 130.911 241.842 131.173 241.713 131.452L240.599 131.054C240.798 130.59 241.063 130.229 241.395 129.97C241.73 129.708 242.094 129.526 242.489 129.423C242.886 129.317 243.277 129.264 243.662 129.264C243.907 129.264 244.189 129.294 244.507 129.354C244.829 129.41 245.138 129.528 245.437 129.707C245.738 129.886 245.989 130.156 246.187 130.517C246.386 130.878 246.486 131.362 246.486 131.969V137H245.312V135.966H245.253C245.173 136.132 245.041 136.309 244.855 136.498C244.669 136.687 244.423 136.848 244.114 136.98C243.806 137.113 243.43 137.179 242.986 137.179ZM243.165 136.125C243.629 136.125 244.02 136.034 244.338 135.852C244.66 135.669 244.902 135.434 245.064 135.146C245.23 134.857 245.312 134.554 245.312 134.236V133.162C245.263 133.222 245.153 133.276 244.984 133.326C244.819 133.372 244.626 133.414 244.408 133.45C244.192 133.483 243.982 133.513 243.776 133.54C243.574 133.563 243.41 133.583 243.284 133.599C242.979 133.639 242.694 133.704 242.429 133.793C242.167 133.879 241.955 134.01 241.793 134.186C241.634 134.358 241.554 134.594 241.554 134.892C241.554 135.3 241.705 135.608 242.006 135.817C242.311 136.022 242.697 136.125 243.165 136.125ZM251.59 137.159C250.874 137.159 250.257 136.99 249.74 136.652C249.223 136.314 248.825 135.848 248.547 135.255C248.269 134.662 248.129 133.984 248.129 133.222C248.129 132.446 248.272 131.762 248.557 131.168C248.845 130.572 249.246 130.106 249.76 129.771C250.277 129.433 250.88 129.264 251.57 129.264C252.107 129.264 252.591 129.364 253.021 129.562C253.452 129.761 253.805 130.04 254.08 130.398C254.355 130.756 254.526 131.173 254.592 131.651H253.419C253.33 131.303 253.131 130.994 252.823 130.726C252.518 130.454 252.107 130.318 251.59 130.318C251.132 130.318 250.731 130.437 250.386 130.676C250.045 130.911 249.778 131.245 249.586 131.675C249.397 132.103 249.303 132.605 249.303 133.182C249.303 133.772 249.395 134.286 249.581 134.723C249.77 135.161 250.035 135.5 250.377 135.742C250.721 135.984 251.126 136.105 251.59 136.105C251.894 136.105 252.171 136.052 252.42 135.946C252.668 135.84 252.879 135.688 253.051 135.489C253.224 135.29 253.346 135.051 253.419 134.773H254.592C254.526 135.223 254.362 135.629 254.1 135.991C253.842 136.349 253.499 136.634 253.071 136.846C252.647 137.055 252.153 137.159 251.59 137.159ZM257.341 132.406V137H256.168V126.818H257.341V130.557H257.44C257.619 130.162 257.888 129.849 258.246 129.617C258.607 129.382 259.088 129.264 259.688 129.264C260.208 129.264 260.664 129.369 261.055 129.577C261.446 129.783 261.749 130.099 261.964 130.527C262.183 130.951 262.293 131.491 262.293 132.148V137H261.119V132.227C261.119 131.621 260.962 131.152 260.647 130.82C260.335 130.486 259.903 130.318 259.349 130.318C258.965 130.318 258.62 130.399 258.315 130.562C258.014 130.724 257.775 130.961 257.599 131.273C257.427 131.584 257.341 131.962 257.341 132.406ZM267.501 137.159C266.765 137.159 266.13 136.997 265.597 136.672C265.066 136.344 264.657 135.886 264.369 135.3C264.084 134.71 263.941 134.024 263.941 133.241C263.941 132.459 264.084 131.77 264.369 131.173C264.657 130.573 265.058 130.106 265.572 129.771C266.089 129.433 266.692 129.264 267.381 129.264C267.779 129.264 268.172 129.33 268.56 129.463C268.948 129.596 269.301 129.811 269.619 130.109C269.937 130.404 270.19 130.795 270.379 131.283C270.568 131.77 270.663 132.37 270.663 133.082V133.58H264.776V132.565H269.47C269.47 132.134 269.383 131.75 269.211 131.412C269.042 131.074 268.8 130.807 268.485 130.612C268.174 130.416 267.806 130.318 267.381 130.318C266.914 130.318 266.51 130.434 266.168 130.666C265.83 130.895 265.57 131.193 265.388 131.561C265.206 131.929 265.114 132.323 265.114 132.744V133.42C265.114 133.997 265.214 134.486 265.413 134.887C265.615 135.285 265.895 135.588 266.253 135.797C266.611 136.002 267.027 136.105 267.501 136.105C267.809 136.105 268.087 136.062 268.336 135.976C268.588 135.886 268.805 135.754 268.987 135.578C269.17 135.399 269.31 135.177 269.41 134.912L270.543 135.23C270.424 135.615 270.224 135.953 269.942 136.244C269.66 136.533 269.312 136.758 268.898 136.92C268.484 137.08 268.018 137.159 267.501 137.159Z" fill="#749FF6"/>
<path d="M58 104.333L60.4 107L64 103" stroke="#749FF6" stroke-linecap="round" stroke-linejoin="round"/>
<path d="M58 131.333L60.4 134L64 130" stroke="#749FF6" stroke-linecap="round" stroke-linejoin="round"/>
<path d="M73.1985 215V204.091H77.087C77.9357 204.091 78.6388 204.245 79.1964 204.554C79.7539 204.863 80.1712 205.286 80.4482 205.822C80.7251 206.355 80.8636 206.955 80.8636 207.623C80.8636 208.294 80.7234 208.897 80.4428 209.434C80.1658 209.966 79.7468 210.389 79.1857 210.701C78.6282 211.01 77.9268 211.165 77.0817 211.165H74.4077V209.769H76.9325C77.4688 209.769 77.9038 209.677 78.2376 209.492C78.5714 209.304 78.8164 209.048 78.9727 208.725C79.1289 208.402 79.207 208.034 79.207 207.623C79.207 207.211 79.1289 206.845 78.9727 206.525C78.8164 206.206 78.5696 205.955 78.2322 205.774C77.8984 205.593 77.4581 205.502 76.9112 205.502H74.8445V215H73.1985ZM87.8483 211.607V206.818H89.4463V215H87.8802V213.583H87.795C87.6068 214.02 87.305 214.384 86.8895 214.675C86.4775 214.963 85.9644 215.107 85.3501 215.107C84.8245 215.107 84.3593 214.991 83.9545 214.76C83.5532 214.526 83.2371 214.18 83.0063 213.722C82.779 213.263 82.6654 212.697 82.6654 212.022V206.818H84.2581V211.831C84.2581 212.388 84.4126 212.832 84.7215 213.162C85.0305 213.493 85.4317 213.658 85.9253 213.658C86.2236 213.658 86.5202 213.583 86.8149 213.434C87.1132 213.285 87.36 213.059 87.5553 212.757C87.7542 212.456 87.8518 212.072 87.8483 211.607ZM97.7173 208.816L96.2738 209.071C96.2134 208.887 96.1175 208.711 95.9862 208.544C95.8583 208.377 95.6843 208.24 95.4641 208.134C95.244 208.027 94.9688 207.974 94.6385 207.974C94.1875 207.974 93.8111 208.075 93.5092 208.278C93.2074 208.477 93.0565 208.734 93.0565 209.05C93.0565 209.324 93.1577 209.544 93.3601 209.711C93.5625 209.877 93.8892 210.014 94.3402 210.121L95.6399 210.419C96.3928 210.593 96.9538 210.861 97.3232 211.223C97.6925 211.586 97.8771 212.056 97.8771 212.635C97.8771 213.125 97.7351 213.562 97.451 213.945C97.1705 214.325 96.7781 214.624 96.2738 214.84C95.7731 215.057 95.1925 215.165 94.532 215.165C93.6158 215.165 92.8683 214.97 92.2894 214.579C91.7106 214.185 91.3555 213.626 91.2241 212.901L92.7635 212.667C92.8594 213.068 93.0565 213.372 93.3548 213.578C93.6531 213.78 94.0419 213.881 94.5213 213.881C95.0433 213.881 95.4606 213.773 95.7731 213.556C96.0856 213.336 96.2418 213.068 96.2418 212.752C96.2418 212.496 96.146 212.282 95.9542 212.108C95.766 211.934 95.4766 211.802 95.0859 211.713L93.701 211.41C92.9375 211.236 92.3729 210.959 92.0071 210.579C91.6449 210.199 91.4638 209.718 91.4638 209.135C91.4638 208.652 91.5987 208.23 91.8686 207.868C92.1385 207.505 92.5114 207.223 92.9872 207.021C93.4631 206.815 94.0082 206.712 94.6225 206.712C95.5067 206.712 96.2028 206.903 96.7106 207.287C97.2184 207.667 97.554 208.176 97.7173 208.816ZM101.221 210.142V215H99.6283V204.091H101.2V208.15H101.301C101.493 207.71 101.786 207.36 102.18 207.1C102.574 206.841 103.089 206.712 103.725 206.712C104.286 206.712 104.776 206.827 105.195 207.058C105.617 207.289 105.944 207.633 106.175 208.091C106.409 208.546 106.526 209.114 106.526 209.796V215H104.934V209.988C104.934 209.387 104.779 208.922 104.47 208.592C104.161 208.258 103.732 208.091 103.181 208.091C102.805 208.091 102.467 208.171 102.169 208.331C101.874 208.491 101.642 208.725 101.471 209.034C101.304 209.339 101.221 209.709 101.221 210.142ZM116.441 206.818V208.097H111.972V206.818H116.441ZM113.17 204.858H114.763V212.598C114.763 212.907 114.809 213.139 114.901 213.295C114.994 213.448 115.113 213.553 115.258 213.61C115.407 213.663 115.569 213.69 115.743 213.69C115.871 213.69 115.983 213.681 116.078 213.663C116.174 213.645 116.249 213.631 116.302 213.62L116.59 214.936C116.498 214.972 116.366 215.007 116.196 215.043C116.025 215.082 115.812 215.103 115.556 215.107C115.137 215.114 114.747 215.039 114.385 214.883C114.022 214.727 113.729 214.485 113.506 214.158C113.282 213.832 113.17 213.422 113.17 212.928V204.858ZM121.561 215.165C120.794 215.165 120.125 214.989 119.553 214.638C118.981 214.286 118.537 213.794 118.221 213.162C117.905 212.53 117.747 211.792 117.747 210.946C117.747 210.098 117.905 209.355 118.221 208.72C118.537 208.084 118.981 207.591 119.553 207.239C120.125 206.887 120.794 206.712 121.561 206.712C122.328 206.712 122.997 206.887 123.569 207.239C124.141 207.591 124.585 208.084 124.901 208.72C125.217 209.355 125.375 210.098 125.375 210.946C125.375 211.792 125.217 212.53 124.901 213.162C124.585 213.794 124.141 214.286 123.569 214.638C122.997 214.989 122.328 215.165 121.561 215.165ZM121.566 213.828C122.063 213.828 122.475 213.697 122.802 213.434C123.129 213.171 123.37 212.821 123.527 212.385C123.686 211.948 123.766 211.467 123.766 210.941C123.766 210.419 123.686 209.94 123.527 209.503C123.37 209.062 123.129 208.709 122.802 208.443C122.475 208.176 122.063 208.043 121.566 208.043C121.066 208.043 120.65 208.176 120.32 208.443C119.993 208.709 119.75 209.062 119.59 209.503C119.434 209.94 119.356 210.419 119.356 210.941C119.356 211.467 119.434 211.948 119.59 212.385C119.75 212.821 119.993 213.171 120.32 213.434C120.65 213.697 121.066 213.828 121.566 213.828ZM138.633 207.537C138.53 207.214 138.392 206.925 138.218 206.669C138.047 206.41 137.843 206.19 137.605 206.009C137.367 205.824 137.095 205.684 136.79 205.588C136.488 205.492 136.156 205.444 135.794 205.444C135.18 205.444 134.626 205.602 134.132 205.918C133.638 206.234 133.248 206.697 132.96 207.308C132.676 207.915 132.534 208.659 132.534 209.54C132.534 210.424 132.678 211.172 132.965 211.783C133.253 212.393 133.647 212.857 134.148 213.173C134.649 213.489 135.219 213.647 135.858 213.647C136.451 213.647 136.968 213.526 137.408 213.285C137.852 213.043 138.195 212.702 138.436 212.262C138.681 211.818 138.804 211.296 138.804 210.696L139.23 210.776H136.108V209.418H140.396V210.659C140.396 211.575 140.201 212.37 139.81 213.045C139.423 213.716 138.887 214.235 138.202 214.6C137.52 214.966 136.739 215.149 135.858 215.149C134.871 215.149 134.004 214.922 133.258 214.467C132.516 214.013 131.937 213.368 131.522 212.534C131.106 211.696 130.899 210.701 130.899 209.551C130.899 208.681 131.019 207.9 131.261 207.207C131.502 206.515 131.842 205.927 132.278 205.444C132.719 204.957 133.235 204.586 133.828 204.331C134.425 204.071 135.077 203.942 135.783 203.942C136.373 203.942 136.921 204.029 137.429 204.203C137.941 204.377 138.395 204.624 138.793 204.943C139.194 205.263 139.526 205.643 139.789 206.083C140.052 206.52 140.229 207.005 140.322 207.537H138.633ZM142.87 215V206.818H144.463V215H142.87ZM143.675 205.556C143.398 205.556 143.16 205.463 142.961 205.279C142.766 205.091 142.668 204.867 142.668 204.608C142.668 204.345 142.766 204.121 142.961 203.936C143.16 203.748 143.398 203.654 143.675 203.654C143.952 203.654 144.188 203.748 144.383 203.936C144.582 204.121 144.682 204.345 144.682 204.608C144.682 204.867 144.582 205.091 144.383 205.279C144.188 205.463 143.952 205.556 143.675 205.556ZM150.425 206.818V208.097H145.956V206.818H150.425ZM147.154 204.858H148.747V212.598C148.747 212.907 148.793 213.139 148.886 213.295C148.978 213.448 149.097 213.553 149.243 213.61C149.392 213.663 149.553 213.69 149.727 213.69C149.855 213.69 149.967 213.681 150.063 213.663C150.159 213.645 150.233 213.631 150.287 213.62L150.574 214.936C150.482 214.972 150.35 215.007 150.18 215.043C150.01 215.082 149.797 215.103 149.541 215.107C149.122 215.114 148.731 215.039 148.369 214.883C148.007 214.727 147.714 214.485 147.49 214.158C147.266 213.832 147.154 213.422 147.154 212.928V204.858ZM152.491 215V204.091H154.136V208.832H159.575V204.091H161.226V215H159.575V210.243H154.136V215H152.491ZM168.678 211.607V206.818H170.276V215H168.71V213.583H168.625C168.437 214.02 168.135 214.384 167.72 214.675C167.308 214.963 166.794 215.107 166.18 215.107C165.655 215.107 165.189 214.991 164.785 214.76C164.383 214.526 164.067 214.18 163.836 213.722C163.609 213.263 163.495 212.697 163.495 212.022V206.818H165.088V211.831C165.088 212.388 165.243 212.832 165.552 213.162C165.861 213.493 166.262 213.658 166.755 213.658C167.054 213.658 167.35 213.583 167.645 213.434C167.943 213.285 168.19 213.059 168.385 212.757C168.584 212.456 168.682 212.072 168.678 211.607ZM172.544 215V204.091H174.137V208.145H174.233C174.325 207.974 174.458 207.777 174.632 207.553C174.806 207.33 175.048 207.134 175.357 206.967C175.666 206.797 176.074 206.712 176.582 206.712C177.242 206.712 177.832 206.879 178.35 207.212C178.869 207.546 179.275 208.027 179.57 208.656C179.868 209.284 180.018 210.041 180.018 210.925C180.018 211.809 179.87 212.567 179.575 213.2C179.281 213.828 178.876 214.313 178.361 214.654C177.846 214.991 177.258 215.16 176.598 215.16C176.101 215.16 175.694 215.076 175.378 214.909C175.066 214.743 174.82 214.547 174.643 214.324C174.465 214.1 174.329 213.901 174.233 213.727H174.1V215H172.544ZM174.105 210.909C174.105 211.484 174.188 211.989 174.355 212.422C174.522 212.855 174.764 213.194 175.08 213.439C175.396 213.681 175.783 213.801 176.241 213.801C176.717 213.801 177.115 213.675 177.434 213.423C177.754 213.168 177.995 212.821 178.159 212.385C178.325 211.948 178.409 211.456 178.409 210.909C178.409 210.369 178.327 209.885 178.164 209.455C178.004 209.025 177.763 208.686 177.439 208.438C177.12 208.189 176.72 208.065 176.241 208.065C175.779 208.065 175.389 208.184 175.069 208.422C174.753 208.659 174.513 208.991 174.35 209.418C174.187 209.844 174.105 210.341 174.105 210.909Z" fill="#EFF1F6"/>
<path fill-rule="evenodd" clip-rule="evenodd" d="M53.9503 201C49.5776 201 46 204.688 46 209.195C46 212.78 48.2857 215.853 51.4658 216.98C51.8634 217.082 51.9627 216.775 51.9627 216.57C51.9627 216.365 51.9627 215.853 51.9627 215.136C49.7764 215.648 49.2795 214.112 49.2795 214.112C48.882 213.19 48.3851 212.882 48.3851 212.882C47.6894 212.37 48.4845 212.37 48.4845 212.37C49.2795 212.473 49.677 213.19 49.677 213.19C50.3727 214.521 51.5652 214.112 51.9627 213.907C52.0621 213.394 52.2609 212.985 52.4596 212.78C50.6708 212.575 48.882 211.858 48.882 208.683C48.882 207.761 49.1801 207.044 49.677 206.531C49.5776 206.327 49.2795 205.507 49.7764 204.38C49.7764 204.38 50.472 204.175 51.9627 205.2C52.559 204.995 53.2547 204.892 53.9503 204.892C54.646 204.892 55.3416 204.995 55.9379 205.2C57.4286 204.175 58.1242 204.38 58.1242 204.38C58.5217 205.507 58.323 206.327 58.2236 206.531C58.7205 207.146 59.0186 207.863 59.0186 208.683C59.0186 211.858 57.1304 212.473 55.3416 212.677C55.6398 213.087 55.9379 213.599 55.9379 214.316C55.9379 215.443 55.9379 216.263 55.9379 216.57C55.9379 216.775 56.0373 217.082 56.5342 216.98C59.7143 215.853 62 212.78 62 209.195C61.9006 204.688 58.323 201 53.9503 201Z" fill="#749FF6"/>
</g>
</g>
<defs>
<filter id="filter0_b_124_479" x="-2" y="37" width="443" height="162" filterUnits="userSpaceOnUse" color-interpolation-filters="sRGB">
<feFlood flood-opacity="0" result="BackgroundImageFix"/>
<feGaussianBlur in="BackgroundImageFix" stdDeviation="24"/>
<feComposite in2="SourceAlpha" operator="in" result="effect1_backgroundBlur_124_479"/>
<feBlend mode="normal" in="SourceGraphic" in2="effect1_backgroundBlur_124_479" result="shape"/>
</filter>
<filter id="filter1_b_124_479" x="-2" y="198" width="397" height="203" filterUnits="userSpaceOnUse" color-interpolation-filters="sRGB">
<feFlood flood-opacity="0" result="BackgroundImageFix"/>
<feGaussianBlur in="BackgroundImageFix" stdDeviation="24"/>
<feComposite in2="SourceAlpha" operator="in" result="effect1_backgroundBlur_124_479"/>
<feBlend mode="normal" in="SourceGraphic" in2="effect1_backgroundBlur_124_479" result="shape"/>
</filter>
<linearGradient id="paint0_linear_124_479" x1="190" y1="20" x2="190" y2="233.5" gradientUnits="userSpaceOnUse">
<stop offset="0.707484" stop-color="#D9D9D9"/>
<stop offset="1" stop-color="#D9D9D9" stop-opacity="0"/>
</linearGradient>
<linearGradient id="paint1_linear_124_479" x1="0" y1="115.515" x2="376.493" y2="115.515" gradientUnits="userSpaceOnUse">
<stop offset="0.788916" stop-color="#D9D9D9"/>
<stop offset="0.982555" stop-color="#D9D9D9" stop-opacity="0"/>
</linearGradient>
<linearGradient id="paint2_linear_124_479" x1="203.5" y1="16" x2="203.5" y2="293" gradientUnits="userSpaceOnUse">
<stop stop-color="#1C2449"/>
<stop offset="1" stop-color="#161D44"/>
</linearGradient>
<linearGradient id="paint3_linear_124_479" x1="203.5" y1="16" x2="203.5" y2="293" gradientUnits="userSpaceOnUse">
<stop offset="0.334837" stop-color="#4D6AB2"/>
<stop offset="1" stop-color="#314472"/>
</linearGradient>
</defs>
</svg>
