<svg width="100" height="100" viewBox="0 0 100 100" fill="none" xmlns="http://www.w3.org/2000/svg">
<g opacity="0.8" filter="url(#filter0_f_124_731)">
<circle cx="50" cy="50" r="11" fill="#0054FF"/>
</g>
<g filter="url(#filter1_d_124_731)">
<rect x="32" y="32" width="36" height="36" rx="9" fill="url(#paint0_linear_124_731)" fill-opacity="0.35" shape-rendering="crispEdges"/>
<rect x="32.6429" y="32.6429" width="34.7143" height="34.7143" rx="8.35714" stroke="url(#paint1_linear_124_731)" stroke-opacity="0.3" stroke-width="1.28571" shape-rendering="crispEdges"/>
</g>
<path fill-rule="evenodd" clip-rule="evenodd" d="M53.0946 40.5973C53.0946 40.173 53.4385 39.8291 53.8628 39.8291H56.9356C57.3599 39.8291 57.7038 40.173 57.7038 40.5973V43.6702C57.7038 44.0944 57.3599 44.4384 56.9356 44.4384C56.5114 44.4384 56.1674 44.0944 56.1674 43.6702V42.3076L51.2707 46.6588C50.9773 46.9195 50.5346 46.9171 50.244 46.6533L48.0894 44.697L42.8428 49.244C42.5221 49.5219 42.037 49.4873 41.7591 49.1666C41.4812 48.846 41.5159 48.3609 41.8365 48.083L47.5981 43.0896C47.8919 42.835 48.3297 42.84 48.6176 43.1014L50.7659 45.0519L54.9146 41.3655H53.8628C53.4385 41.3655 53.0946 41.0216 53.0946 40.5973ZM43.1078 54.425C43.5321 54.425 43.876 54.7689 43.876 55.1932L43.876 59.8024C43.876 60.2267 43.5321 60.5706 43.1078 60.5706C42.6835 60.5706 42.3396 60.2267 42.3396 59.8024L42.3396 55.1932C42.3396 54.7689 42.6835 54.425 43.1078 54.425ZM48.4853 52.1203C48.4853 51.696 48.1414 51.3521 47.7171 51.3521C47.2928 51.3521 46.9489 51.696 46.9489 52.1203L46.9489 59.8024C46.9489 60.2267 47.2928 60.5706 47.7171 60.5706C48.1414 60.5706 48.4853 60.2267 48.4853 59.8024V52.1203ZM52.3264 49.0468C52.7507 49.0468 53.0946 49.3907 53.0946 49.815V59.8017C53.0946 60.226 52.7507 60.5699 52.3264 60.5699C51.9021 60.5699 51.5582 60.226 51.5582 59.8017L51.5582 49.815C51.5582 49.3907 51.9021 49.0468 52.3264 49.0468ZM57.7037 47.5106C57.7037 47.0863 57.3598 46.7424 56.9355 46.7424C56.5113 46.7424 56.1673 47.0863 56.1673 47.5106L56.1673 59.8019C56.1673 60.2262 56.5113 60.5701 56.9355 60.5701C57.3598 60.5701 57.7037 60.2262 57.7037 59.8019V47.5106Z" fill="url(#paint2_linear_124_731)"/>
<defs>
<filter id="filter0_f_124_731" x="0.428574" y="0.428574" width="99.1429" height="99.1429" filterUnits="userSpaceOnUse" color-interpolation-filters="sRGB">
<feFlood flood-opacity="0" result="BackgroundImageFix"/>
<feBlend mode="normal" in="SourceGraphic" in2="BackgroundImageFix" result="shape"/>
<feGaussianBlur stdDeviation="19.2857" result="effect1_foregroundBlur_124_731"/>
</filter>
<filter id="filter1_d_124_731" x="23.5625" y="23.5625" width="52.875" height="52.875" filterUnits="userSpaceOnUse" color-interpolation-filters="sRGB">
<feFlood flood-opacity="0" result="BackgroundImageFix"/>
<feColorMatrix in="SourceAlpha" type="matrix" values="0 0 0 0 0 0 0 0 0 0 0 0 0 0 0 0 0 0 127 0" result="hardAlpha"/>
<feOffset/>
<feGaussianBlur stdDeviation="4.21875"/>
<feComposite in2="hardAlpha" operator="out"/>
<feColorMatrix type="matrix" values="0 0 0 0 0 0 0 0 0 0 0 0 0 0 0 0 0 0 0.4 0"/>
<feBlend mode="normal" in2="BackgroundImageFix" result="effect1_dropShadow_124_731"/>
<feBlend mode="normal" in="SourceGraphic" in2="effect1_dropShadow_124_731" result="shape"/>
</filter>
<linearGradient id="paint0_linear_124_731" x1="50" y1="32" x2="50" y2="68" gradientUnits="userSpaceOnUse">
<stop stop-color="#284A90"/>
<stop offset="1" stop-color="#284A90" stop-opacity="0.4"/>
</linearGradient>
<linearGradient id="paint1_linear_124_731" x1="50" y1="32" x2="50" y2="68" gradientUnits="userSpaceOnUse">
<stop stop-color="#749FF6"/>
<stop offset="0.430493" stop-color="#153984"/>
</linearGradient>
<linearGradient id="paint2_linear_124_731" x1="49.6404" y1="39.3835" x2="49.6404" y2="61.0183" gradientUnits="userSpaceOnUse">
<stop stop-color="#8096CB"/>
<stop offset="1" stop-color="#8096CB" stop-opacity="0.5"/>
</linearGradient>
</defs>
</svg>
