<svg width="102" height="102" viewBox="0 0 102 102" fill="none" xmlns="http://www.w3.org/2000/svg">
<g opacity="0.8" filter="url(#filter0_f_124_713)">
<circle cx="51" cy="51" r="11" fill="#0054FF"/>
</g>
<g filter="url(#filter1_d_124_713)">
<rect x="33" y="33" width="36" height="36" rx="9.24998" fill="url(#paint0_linear_124_713)" fill-opacity="0.35" shape-rendering="crispEdges"/>
<rect x="33.6607" y="33.6607" width="34.6786" height="34.6786" rx="8.58927" stroke="url(#paint1_linear_124_713)" stroke-opacity="0.3" stroke-width="1.32143" shape-rendering="crispEdges"/>
</g>
<path fill-rule="evenodd" clip-rule="evenodd" d="M48.0943 43.3276C47.6156 43.3276 47.2275 42.9395 47.2275 42.4608V40.4381C47.2275 39.9594 47.6156 39.5713 48.0943 39.5713C48.5731 39.5713 48.9612 39.9594 48.9612 40.4381V42.4608C48.9612 42.9395 48.5731 43.3276 48.0943 43.3276ZM54.7412 46.9377L46.9396 46.9377L46.9396 54.7393L54.7412 54.7393L54.7412 46.9377ZM46.9396 45.204C45.9821 45.204 45.2059 45.9802 45.2059 46.9377V54.7393C45.2059 55.6968 45.9821 56.473 46.9396 56.473H54.7412C55.6987 56.473 56.4749 55.6968 56.4749 54.7393V46.9377C56.4749 45.9802 55.6987 45.204 54.7412 45.204H46.9396ZM47.2275 61.2423C47.2275 61.721 47.6156 62.1091 48.0943 62.1091C48.5731 62.1091 48.9612 61.721 48.9612 61.2423V59.2196C48.9612 58.7409 48.5731 58.3528 48.0943 58.3528C47.6156 58.3528 47.2275 58.7409 47.2275 59.2196V61.2423ZM53.7289 43.3276C53.2502 43.3276 52.8621 42.9395 52.8621 42.4608V40.4381C52.8621 39.9594 53.2502 39.5713 53.7289 39.5713C54.2076 39.5713 54.5957 39.9594 54.5957 40.4381V42.4608C54.5957 42.9395 54.2076 43.3276 53.7289 43.3276ZM52.8621 61.2423C52.8621 61.721 53.2502 62.1091 53.7289 62.1091C54.2076 62.1091 54.5957 61.721 54.5957 61.2423V59.2196C54.5957 58.7409 54.2076 58.3528 53.7289 58.3528C53.2502 58.3528 52.8621 58.7409 52.8621 59.2196V61.2423ZM39.5715 48.0974C39.5715 47.6186 39.9596 47.2305 40.4383 47.2305H42.461C42.9397 47.2305 43.3278 47.6186 43.3278 48.0974C43.3278 48.5761 42.9397 48.9642 42.461 48.9642H40.4383C39.9596 48.9642 39.5715 48.5761 39.5715 48.0974ZM59.2211 47.2305C58.7424 47.2305 58.3543 47.6186 58.3543 48.0974C58.3543 48.5761 58.7424 48.9642 59.2211 48.9642H61.2437C61.7225 48.9642 62.1106 48.5761 62.1106 48.0974C62.1106 47.6186 61.7225 47.2305 61.2437 47.2305H59.2211ZM58.3543 53.7284C58.3543 53.2496 58.7424 52.8615 59.2211 52.8615H61.2437C61.7225 52.8615 62.1106 53.2496 62.1106 53.7284C62.1106 54.2071 61.7225 54.5952 61.2437 54.5952H59.2211C58.7424 54.5952 58.3543 54.2071 58.3543 53.7284ZM40.4383 52.8615C39.9596 52.8615 39.5715 53.2496 39.5715 53.7284C39.5715 54.2071 39.9596 54.5952 40.4383 54.5952H42.461C42.9397 54.5952 43.3278 54.2071 43.3278 53.7284C43.3278 53.2496 42.9397 52.8615 42.461 52.8615H40.4383Z" fill="url(#paint2_linear_124_713)"/>
<defs>
<filter id="filter0_f_124_713" x="0.357208" y="0.357208" width="101.286" height="101.286" filterUnits="userSpaceOnUse" color-interpolation-filters="sRGB">
<feFlood flood-opacity="0" result="BackgroundImageFix"/>
<feBlend mode="normal" in="SourceGraphic" in2="BackgroundImageFix" result="shape"/>
<feGaussianBlur stdDeviation="19.8214" result="effect1_foregroundBlur_124_713"/>
</filter>
<filter id="filter1_d_124_713" x="24.3281" y="24.3281" width="53.3437" height="53.3437" filterUnits="userSpaceOnUse" color-interpolation-filters="sRGB">
<feFlood flood-opacity="0" result="BackgroundImageFix"/>
<feColorMatrix in="SourceAlpha" type="matrix" values="0 0 0 0 0 0 0 0 0 0 0 0 0 0 0 0 0 0 127 0" result="hardAlpha"/>
<feOffset/>
<feGaussianBlur stdDeviation="4.33593"/>
<feComposite in2="hardAlpha" operator="out"/>
<feColorMatrix type="matrix" values="0 0 0 0 0 0 0 0 0 0 0 0 0 0 0 0 0 0 0.4 0"/>
<feBlend mode="normal" in2="BackgroundImageFix" result="effect1_dropShadow_124_713"/>
<feBlend mode="normal" in="SourceGraphic" in2="effect1_dropShadow_124_713" result="shape"/>
</filter>
<linearGradient id="paint0_linear_124_713" x1="51" y1="33" x2="51" y2="69" gradientUnits="userSpaceOnUse">
<stop stop-color="#284A90"/>
<stop offset="1" stop-color="#284A90" stop-opacity="0.4"/>
</linearGradient>
<linearGradient id="paint1_linear_124_713" x1="51" y1="33" x2="51" y2="69" gradientUnits="userSpaceOnUse">
<stop stop-color="#749FF6"/>
<stop offset="0.430493" stop-color="#153984"/>
</linearGradient>
<linearGradient id="paint2_linear_124_713" x1="50.8449" y1="39.0871" x2="50.8449" y2="62.5955" gradientUnits="userSpaceOnUse">
<stop stop-color="#8096CC"/>
<stop offset="1" stop-color="#8096CB" stop-opacity="0.5"/>
</linearGradient>
</defs>
</svg>
