<svg width="82" height="82" viewBox="0 0 82 82" fill="none" xmlns="http://www.w3.org/2000/svg">
<g opacity="0.8" filter="url(#filter0_f_124_745)">
<circle cx="41" cy="41" r="11" fill="#0054FF"/>
</g>
<g filter="url(#filter1_d_124_745)">
<rect x="23" y="23" width="36" height="36" rx="7" fill="url(#paint0_linear_124_745)" fill-opacity="0.35" shape-rendering="crispEdges"/>
<rect x="23.5" y="23.5" width="35" height="35" rx="6.5" stroke="url(#paint1_linear_124_745)" stroke-opacity="0.3" shape-rendering="crispEdges"/>
</g>
<path fill-rule="evenodd" clip-rule="evenodd" d="M40.6249 33.3553C42.3459 33.2705 44.0451 33.7695 45.4469 34.7713C46.6641 35.6412 47.5952 36.8458 48.1317 38.2319L45.7297 37.1861C45.4035 37.0441 45.0239 37.1934 44.8819 37.5196C44.7399 37.8459 44.8892 38.2254 45.2154 38.3675L49.027 40.0268C49.1962 40.1005 49.3889 40.0981 49.5562 40.0201C49.7235 39.9421 49.8494 39.7961 49.9018 39.6192L51.0736 35.6632C51.1747 35.322 50.98 34.9636 50.6389 34.8625C50.2978 34.7615 49.9393 34.9561 49.8383 35.2972L49.2018 37.4458C48.5598 35.9613 47.5236 34.6718 46.1961 33.7231C44.558 32.5524 42.5725 31.9694 40.5615 32.0685C38.5506 32.1676 36.632 32.943 35.117 34.269C33.6019 35.5951 32.5792 37.394 32.2146 39.3741C32.1501 39.724 32.3815 40.0599 32.7315 40.1243C33.0814 40.1888 33.4172 39.9574 33.4817 39.6074C33.7937 37.9129 34.6689 36.3734 35.9655 35.2386C37.2621 34.1037 38.904 33.4401 40.6249 33.3553ZM49.2681 41.8699C49.618 41.9343 49.8495 42.2702 49.785 42.6201C49.4204 44.6003 48.3977 46.3992 46.8826 47.7252C45.3676 49.0513 43.449 49.8267 41.4381 49.9258C39.4271 50.0249 37.4416 49.4419 35.8035 48.2712C34.4647 47.3144 33.4221 46.0109 32.7814 44.5103L32.397 46.9372C32.3414 47.2886 32.0114 47.5283 31.66 47.4727C31.3086 47.417 31.0688 47.087 31.1245 46.7356L31.7699 42.6605C31.7988 42.4782 31.9045 42.317 32.0602 42.2179C32.2159 42.1187 32.4066 42.0912 32.584 42.1421L36.5796 43.2898C36.9216 43.388 37.1191 43.7449 37.0209 44.0868C36.9227 44.4288 36.5658 44.6264 36.2239 44.5281L33.9076 43.8628C34.4497 45.2066 35.365 46.3742 36.5526 47.223C37.9545 48.2248 39.6537 48.7238 41.3746 48.639C43.0956 48.5541 44.7375 47.8905 46.0341 46.7557C47.3306 45.6209 48.2059 44.0814 48.5179 42.3868C48.5823 42.0369 48.9182 41.8055 49.2681 41.8699Z" fill="url(#paint2_linear_124_745)"/>
<defs>
<filter id="filter0_f_124_745" x="0" y="0" width="82" height="82" filterUnits="userSpaceOnUse" color-interpolation-filters="sRGB">
<feFlood flood-opacity="0" result="BackgroundImageFix"/>
<feBlend mode="normal" in="SourceGraphic" in2="BackgroundImageFix" result="shape"/>
<feGaussianBlur stdDeviation="15" result="effect1_foregroundBlur_124_745"/>
</filter>
<filter id="filter1_d_124_745" x="16.4375" y="16.4375" width="49.125" height="49.125" filterUnits="userSpaceOnUse" color-interpolation-filters="sRGB">
<feFlood flood-opacity="0" result="BackgroundImageFix"/>
<feColorMatrix in="SourceAlpha" type="matrix" values="0 0 0 0 0 0 0 0 0 0 0 0 0 0 0 0 0 0 127 0" result="hardAlpha"/>
<feOffset/>
<feGaussianBlur stdDeviation="3.28125"/>
<feComposite in2="hardAlpha" operator="out"/>
<feColorMatrix type="matrix" values="0 0 0 0 0 0 0 0 0 0 0 0 0 0 0 0 0 0 0.4 0"/>
<feBlend mode="normal" in2="BackgroundImageFix" result="effect1_dropShadow_124_745"/>
<feBlend mode="normal" in="SourceGraphic" in2="effect1_dropShadow_124_745" result="shape"/>
</filter>
<linearGradient id="paint0_linear_124_745" x1="41" y1="23" x2="41" y2="59" gradientUnits="userSpaceOnUse">
<stop stop-color="#284A90"/>
<stop offset="1" stop-color="#284A90" stop-opacity="0.4"/>
</linearGradient>
<linearGradient id="paint1_linear_124_745" x1="41" y1="23" x2="41" y2="59" gradientUnits="userSpaceOnUse">
<stop stop-color="#749FF6"/>
<stop offset="0.430493" stop-color="#153984"/>
</linearGradient>
<linearGradient id="paint2_linear_124_745" x1="41.1119" y1="31.6735" x2="41.1119" y2="50.3225" gradientUnits="userSpaceOnUse">
<stop stop-color="#8096CB"/>
<stop offset="1" stop-color="#8096CB" stop-opacity="0.5"/>
</linearGradient>
</defs>
</svg>
